<?xml version="1.0" encoding="UTF-8"?>
<svg version="1.1" xmlns="http://www.w3.org/2000/svg" width="400" height="400">
<path d="M0 0 C0.76224884 0.00182281 1.52449768 0.00364563 2.30984497 0.00552368 C13.98789238 0.05238179 25.22286011 0.66369914 36.625 3.3125 C37.42856934 3.48942383 38.23213867 3.66634766 39.06005859 3.84863281 C50.90895565 6.48071085 62.2810163 10.01662432 73.625 14.3125 C75.05585937 14.83650391 75.05585937 14.83650391 76.515625 15.37109375 C81.94018688 17.42662742 86.93834606 20.01692155 91.99609375 22.8515625 C95.48486531 24.79034491 99.04213866 26.55486991 102.625 28.3125 C102.625 28.9725 102.625 29.6325 102.625 30.3125 C103.553125 30.60125 104.48125 30.89 105.4375 31.1875 C108.625 32.3125 108.625 32.3125 111.625 34.3125 C111.625 34.9725 111.625 35.6325 111.625 36.3125 C112.32625 36.56 113.0275 36.8075 113.75 37.0625 C117.00401828 38.47729056 119.71596923 40.28882642 122.625 42.3125 C123.615 42.9725 124.605 43.6325 125.625 44.3125 C125.625 44.9725 125.625 45.6325 125.625 46.3125 C126.181875 46.56 126.73875 46.8075 127.3125 47.0625 C130.04910913 48.54174818 132.30150869 50.24717439 134.625 52.3125 C134.625 52.9725 134.625 53.6325 134.625 54.3125 C135.22054688 54.56902344 135.81609375 54.82554688 136.4296875 55.08984375 C138.82196371 56.42219687 140.05228199 57.74618605 141.75 59.875 C143.83403634 62.52275666 143.83403634 62.52275666 146.625 64.3125 C146.625 64.9725 146.625 65.6325 146.625 66.3125 C147.285 66.3125 147.945 66.3125 148.625 66.3125 C150.43899118 68.40024441 152.13603146 70.4930958 153.8125 72.6875 C154.30355225 73.32365234 154.79460449 73.95980469 155.30053711 74.61523438 C167.13958732 90.04075756 167.13958732 90.04075756 168.625 96.3125 C169.285 96.3125 169.945 96.3125 170.625 96.3125 C177.06065494 106.89265835 181.88166536 117.45106538 185.87792969 129.16796875 C186.59024082 131.21272072 187.35266756 133.23032515 188.1328125 135.25 C191.34609277 143.79277722 193.43002251 152.50612896 195.25 161.4375 C195.4665625 162.47003906 195.683125 163.50257813 195.90625 164.56640625 C197.66397453 173.08377513 198.77922743 181.30174523 198.828125 189.9921875 C198.83382507 190.80382355 198.83952515 191.61545959 198.84539795 192.45169067 C198.85479185 194.16439537 198.86135943 195.87711768 198.86523438 197.58984375 C198.87484465 200.14617673 198.9058817 202.70167075 198.9375 205.2578125 C199.09352131 229.76810913 193.6744232 255.16053272 183.796875 277.62890625 C182.70759623 280.12335464 181.75564659 282.63521294 180.8125 285.1875 C178.15556543 291.93457035 174.31717821 298.09315127 170.625 304.3125 C169.965 304.3125 169.305 304.3125 168.625 304.3125 C168.36976563 305.19421875 168.11453125 306.0759375 167.8515625 306.984375 C166.60410342 310.36920027 165.15901509 312.68954765 163 315.5625 C162.29359375 316.50609375 161.5871875 317.4496875 160.859375 318.421875 C158.04828332 322.058602 155.19280462 325.65559234 152.2890625 329.21875 C150.49836202 331.41205522 150.49836202 331.41205522 148.625 334.3125 C147.965 334.3125 147.305 334.3125 146.625 334.3125 C146.625 334.9725 146.625 335.6325 146.625 336.3125 C145.25 337.9375 145.25 337.9375 143.625 339.3125 C142.965 339.3125 142.305 339.3125 141.625 339.3125 C141.356875 339.951875 141.08875 340.59125 140.8125 341.25 C139.625 343.3125 139.625 343.3125 136.625 344.3125 C136.625 344.9725 136.625 345.6325 136.625 346.3125 C135.965 346.3125 135.305 346.3125 134.625 346.3125 C134.625 346.9725 134.625 347.6325 134.625 348.3125 C133.1640625 349.8203125 133.1640625 349.8203125 131.25 351.4375 C130.62351562 351.97632813 129.99703125 352.51515625 129.3515625 353.0703125 C127.625 354.3125 127.625 354.3125 125.625 354.3125 C125.625 354.9725 125.625 355.6325 125.625 356.3125 C123.47109994 358.02725539 121.31929308 359.61894878 119.0625 361.1875 C118.45341797 361.62191406 117.84433594 362.05632812 117.21679688 362.50390625 C106.13703547 370.3125 106.13703547 370.3125 102.625 370.3125 C102.625 370.9725 102.625 371.6325 102.625 372.3125 C100.62585146 373.39740378 98.62563439 374.48033867 96.625 375.5625 C95.51125 376.16578125 94.3975 376.7690625 93.25 377.390625 C86.61179617 380.93051479 79.96447219 384.11358028 72.9375 386.8125 C71.75849121 387.26641113 71.75849121 387.26641113 70.55566406 387.72949219 C59.44021863 391.95725843 48.30508436 395.07050238 36.625 397.3125 C34.70494141 397.73402344 34.70494141 397.73402344 32.74609375 398.1640625 C21.86155967 400.37038698 11.0636726 400.60814604 0 400.625 C-1.09820572 400.63024185 -1.09820572 400.63024185 -2.21859741 400.6355896 C-16.05142913 400.67217876 -29.87939748 399.71594492 -43.375 396.5 C-44.48415771 396.24234863 -44.48415771 396.24234863 -45.61572266 395.97949219 C-60.76522346 392.38120413 -75.01301217 387.3192363 -89.375 381.3125 C-89.375 380.6525 -89.375 379.9925 -89.375 379.3125 C-90.08011719 379.21066406 -90.78523438 379.10882813 -91.51171875 379.00390625 C-94.78559645 378.21335188 -97.26084467 376.90726266 -100.1875 375.25 C-101.16332031 374.70214844 -102.13914062 374.15429688 -103.14453125 373.58984375 C-104.24861328 372.95755859 -104.24861328 372.95755859 -105.375 372.3125 C-105.375 371.6525 -105.375 370.9925 -105.375 370.3125 C-106.25929688 370.05597656 -107.14359375 369.79945313 -108.0546875 369.53515625 C-111.40526372 368.30135583 -113.66531443 366.89551889 -116.5 364.75 C-117.44101563 364.04359375 -118.38203125 363.3371875 -119.3515625 362.609375 C-120.34929687 361.85140625 -121.34703125 361.0934375 -122.375 360.3125 C-123.46501086 359.50367654 -124.55617397 358.69640378 -125.6484375 357.890625 C-135.33515832 350.7175836 -135.33515832 350.7175836 -137.375 348.3125 C-137.375 347.6525 -137.375 346.9925 -137.375 346.3125 C-138.035 346.3125 -138.695 346.3125 -139.375 346.3125 C-139.375 345.6525 -139.375 344.9925 -139.375 344.3125 C-140.035 344.3125 -140.695 344.3125 -141.375 344.3125 C-141.375 343.6525 -141.375 342.9925 -141.375 342.3125 C-142.303125 341.94125 -142.303125 341.94125 -143.25 341.5625 C-145.72568687 340.10621361 -146.32625002 338.93437494 -147.375 336.3125 C-148.035 336.3125 -148.695 336.3125 -149.375 336.3125 C-149.375 335.6525 -149.375 334.9925 -149.375 334.3125 C-150.035 334.3125 -150.695 334.3125 -151.375 334.3125 C-153.21045092 332.20413072 -154.92827237 330.09108218 -156.625 327.875 C-157.3665332 326.91799194 -157.3665332 326.91799194 -158.12304688 325.94165039 C-161.76343894 321.20519416 -165.20580274 316.37890378 -168.375 311.3125 C-168.99375 310.343125 -169.6125 309.37375 -170.25 308.375 C-171.375 306.3125 -171.375 306.3125 -171.375 304.3125 C-172.035 304.3125 -172.695 304.3125 -173.375 304.3125 C-174.04654933 303.02336513 -174.71208859 301.73109796 -175.375 300.4375 C-175.74625 299.71820313 -176.1175 298.99890625 -176.5 298.2578125 C-177.375 296.3125 -177.375 296.3125 -177.375 294.3125 C-178.035 294.3125 -178.695 294.3125 -179.375 294.3125 C-182.62360596 286.89484972 -185.77104764 279.50644643 -188.4453125 271.859375 C-189.32372404 269.45297028 -190.33431968 267.1520139 -191.375 264.8125 C-194.26593237 257.70420747 -195.42814662 250.08944951 -196.90917969 242.59228516 C-197.74722024 238.49080576 -198.75449899 234.4298281 -199.76171875 230.3671875 C-201.71162511 220.65491507 -201.61415897 210.86231402 -201.625 201 C-201.62667175 200.1996936 -201.62834351 199.39938721 -201.63006592 198.5748291 C-201.63188506 184.04715363 -200.46679551 170.31633005 -196.84814453 156.20117188 C-196.16187565 153.46176215 -195.59120449 150.69877273 -195 147.9375 C-193.89729854 143.15548772 -192.52589229 138.78164962 -190.58984375 134.28125 C-189.6057777 131.87645838 -188.7245081 129.4857779 -187.87890625 127.03125 C-184.0706145 116.0651238 -179.40713531 106.22927574 -173.375 96.3125 C-172.715 96.3125 -172.055 96.3125 -171.375 96.3125 C-171.14039063 95.46171875 -170.90578125 94.6109375 -170.6640625 93.734375 C-169.21393922 89.88495685 -167.17870817 86.83577774 -164.75 83.5625 C-164.30849609 82.95776855 -163.86699219 82.35303711 -163.41210938 81.72998047 C-154.61506938 69.75904439 -154.61506938 69.75904439 -151.375 66.3125 C-150.715 66.3125 -150.055 66.3125 -149.375 66.3125 C-149.375 65.6525 -149.375 64.9925 -149.375 64.3125 C-148.715 64.3125 -148.055 64.3125 -147.375 64.3125 C-147.375 63.6525 -147.375 62.9925 -147.375 62.3125 C-146.715 62.3125 -146.055 62.3125 -145.375 62.3125 C-145.1275 61.69375 -144.88 61.075 -144.625 60.4375 C-143.16871361 57.96181313 -141.99687494 57.36124998 -139.375 56.3125 C-139.375 55.6525 -139.375 54.9925 -139.375 54.3125 C-138.715 54.3125 -138.055 54.3125 -137.375 54.3125 C-137.375 53.6525 -137.375 52.9925 -137.375 52.3125 C-136.715 52.3125 -136.055 52.3125 -135.375 52.3125 C-135.375 51.6525 -135.375 50.9925 -135.375 50.3125 C-134.715 50.3125 -134.055 50.3125 -133.375 50.3125 C-133.375 49.6525 -133.375 48.9925 -133.375 48.3125 C-131.35546875 46.6484375 -131.35546875 46.6484375 -128.5625 44.6875 C-123.63081246 41.20481344 -118.78843792 37.62800051 -113.98046875 33.9765625 C-111.18631229 32.19198881 -108.54979015 31.23017657 -105.375 30.3125 C-105.375 29.6525 -105.375 28.9925 -105.375 28.3125 C-103.27483377 27.13808465 -101.17041245 25.97285988 -99.0625 24.8125 C-98.46759766 24.47863281 -97.87269531 24.14476563 -97.25976562 23.80078125 C-94.41671156 22.24424886 -92.66839012 21.3125 -89.375 21.3125 C-89.375 20.6525 -89.375 19.9925 -89.375 19.3125 C-64.36011072 9.21344157 -64.36011072 9.21344157 -52.375 6.3125 C-51.35792969 6.05992432 -51.35792969 6.05992432 -50.3203125 5.80224609 C-48.07112726 5.24845426 -45.81811009 4.71447997 -43.5625 4.1875 C-42.90016357 4.02854248 -42.23782715 3.86958496 -41.55541992 3.70581055 C-27.87095476 0.64818031 -13.97222166 -0.07009829 0 0 Z " fill="#E9F2F1" transform="translate(201.375,-0.3125)"/>
<path d="M0 0 C0.9778093 -0.00730133 1.95561859 -0.01460266 2.96305847 -0.02212524 C6.19157642 -0.03832248 9.418082 -0.01113303 12.64648438 0.01806641 C14.891805 0.01910381 17.13712746 0.01806762 19.38244629 0.01504517 C24.08678326 0.01522455 28.79043427 0.03606865 33.49462891 0.07226562 C39.52416011 0.11764099 45.55268911 0.11872796 51.58234406 0.10523033 C56.21837265 0.09854672 60.85417282 0.11181829 65.49015808 0.1314888 C67.71330062 0.13918617 69.93646859 0.14149196 72.15962219 0.13831711 C75.26706329 0.13757517 78.37322059 0.16282982 81.48046875 0.1953125 C82.85835823 0.18788025 82.85835823 0.18788025 84.26408386 0.18029785 C88.44915055 0.25010643 90.669051 0.38676702 94.28771973 2.65396118 C97.51701447 6.11174948 97.3811785 8.29557539 97.43310547 12.95092773 C97.4491684 14.25600784 97.46523132 15.56108795 97.48178101 16.90571594 C97.49326781 18.33769073 97.50387646 19.7696728 97.51367188 21.20166016 C97.51899555 21.92173437 97.52431923 22.64180859 97.52980423 23.38370323 C97.55653114 27.19548859 97.57590694 31.00724126 97.59033203 34.8190918 C97.60697421 38.75364705 97.65174807 42.68736372 97.70270348 46.62160206 C97.7363831 49.64911342 97.74791012 52.67642595 97.75355911 55.70410728 C97.76027035 57.15419609 97.77548947 58.60427187 97.79944992 60.05417824 C97.83110847 62.08593714 97.82813603 64.11814573 97.82373047 66.15014648 C97.83181732 67.30549393 97.83990417 68.46084137 97.84823608 69.65119934 C97.04876717 73.71878785 95.45313534 75.20699462 92.24023438 77.74462891 C89.45185464 78.18466032 87.29971385 78.33548322 84.53320312 78.23291016 C83.44511101 78.22229805 83.44511101 78.22229805 82.33503723 78.21147156 C80.03152734 78.18361296 77.73050187 78.12090081 75.42773438 78.05712891 C73.86071234 78.03203454 72.29365197 78.00922335 70.7265625 77.98876953 C66.89683782 77.93381572 63.06895641 77.84761117 59.24023438 77.74462891 C58.94375 78.36982422 58.64726562 78.99501953 58.34179688 79.63916016 C57.24023438 81.74462891 57.24023438 81.74462891 55.61523438 83.43212891 C53.49400755 86.99964675 53.41131872 90.71100783 54.24023438 94.74462891 C55.71199072 97.96827194 55.71199072 97.96827194 58.24023438 100.74462891 C61.02690853 101.36634078 62.97434825 101.56587024 65.76269531 101.51757812 C66.51430435 101.52820786 67.26591339 101.53883759 68.04029846 101.54978943 C70.51908301 101.57784482 72.99573868 101.5637821 75.47460938 101.54931641 C77.19527039 101.56056616 78.91591605 101.57444663 80.63653564 101.59085083 C85.16093441 101.62692012 89.68465789 101.62725852 94.20916748 101.62017822 C99.64000988 101.61910552 105.07065789 101.66237085 110.50135803 101.69821167 C118.74800068 101.7476688 126.99287646 101.7407714 135.24023438 101.74462891 C135.24023438 77.32462891 135.24023438 52.90462891 135.24023438 27.74462891 C139.20023438 27.74462891 143.16023437 27.74462891 147.24023438 27.74462891 C147.26210815 29.24243896 147.26210815 29.24243896 147.28442383 30.77050781 C147.34263505 34.49449497 147.41986515 38.21789183 147.50268555 41.94140625 C147.535828 43.54938131 147.56389291 45.15746971 147.58666992 46.765625 C147.62041404 49.08463596 147.67273631 51.40261822 147.72851562 53.72119141 C147.73810051 54.79030258 147.73810051 54.79030258 147.74787903 55.88101196 C147.88335223 60.53672737 148.75239745 63.80209895 151.24023438 67.74462891 C156.01596254 70.92844768 161.48067493 70.07789996 167.06420898 70.06030273 C169.16703218 70.05714498 171.26844469 70.08060018 173.37109375 70.10595703 C174.71158677 70.10823043 176.05208357 70.10893333 177.39257812 70.10791016 C179.21776978 70.11238159 179.21776978 70.11238159 181.07983398 70.11694336 C184.48811466 69.7154271 185.70756077 68.94937757 188.24023438 66.74462891 C188.90023437 66.74462891 189.56023437 66.74462891 190.24023438 66.74462891 C191.13986262 62.0640008 191.44519061 57.47422037 191.55664062 52.72119141 C191.58781227 51.60192764 191.58781227 51.60192764 191.61961365 50.46005249 C191.68454667 48.09666382 191.74373008 45.73317227 191.80273438 43.36962891 C191.84597322 41.75894155 191.88958915 40.14826427 191.93359375 38.53759766 C192.04016964 34.60671119 192.14159229 30.67572214 192.24023438 26.74462891 C194.03157415 26.69070898 195.82337337 26.65187319 197.61523438 26.61962891 C198.61296875 26.59642578 199.61070312 26.57322266 200.63867188 26.54931641 C203.24023438 26.74462891 203.24023438 26.74462891 205.24023438 28.74462891 C205.48074341 31.75650024 205.48074341 31.75650024 205.46728516 35.67285156 C205.46757721 36.38515427 205.46786926 37.09745697 205.46817017 37.8313446 C205.46677453 40.19058325 205.45120264 42.54950779 205.43554688 44.90869141 C205.43181757 46.54250923 205.42897021 48.17632929 205.42697144 49.81015015 C205.41932847 54.11415766 205.39967437 58.41803059 205.37756348 62.72198486 C205.35711927 67.11232685 205.34797278 71.50269055 205.33789062 75.89306641 C205.31642904 84.51031573 205.28228518 93.12745558 205.24023438 101.74462891 C205.92649902 101.73415527 206.61276367 101.72368164 207.31982422 101.71289062 C210.41825726 101.67141016 213.51663198 101.64532822 216.61523438 101.61962891 C217.69546875 101.60287109 218.77570313 101.58611328 219.88867188 101.56884766 C220.91992188 101.56240234 221.95117188 101.55595703 223.01367188 101.54931641 C224.44332275 101.53360596 224.44332275 101.53360596 225.90185547 101.51757812 C228.24023438 101.74462891 228.24023438 101.74462891 230.24023438 103.74462891 C230.43362069 106.54063244 230.50245928 109.23720415 230.4831543 112.03393555 C230.48505264 112.89093552 230.48695099 113.74793549 230.48890686 114.63090515 C230.49262084 117.47229064 230.48190242 120.31342227 230.47070312 123.15478516 C230.46951166 125.12251251 230.46905809 127.09024044 230.46931458 129.05796814 C230.46774868 133.18475904 230.45945034 137.31146331 230.44604492 141.43823242 C230.4290438 146.74044405 230.42523083 152.04256049 230.4259901 157.34479618 C230.42571881 161.40841081 230.42024433 165.47200444 230.41298866 169.53561211 C230.40979622 171.49133584 230.40783325 173.44706196 230.40709496 175.40278816 C230.40493809 178.13013938 230.39620844 180.85738754 230.38549805 183.5847168 C230.38617783 184.80890823 230.38617783 184.80890823 230.38687134 186.05783081 C230.35470878 191.6301545 230.35470878 191.6301545 229.24023438 192.74462891 C227.88070956 192.84191439 226.51616887 192.87018291 225.15316772 192.87047005 C224.2670109 192.87307779 223.38085407 192.87568554 222.46784401 192.87837231 C221.4831381 192.87614159 220.4984322 192.87391087 219.48388672 192.87161255 C218.44651556 192.87317254 217.4091444 192.87473253 216.34033775 192.87633979 C212.83560169 192.88035468 209.33090832 192.87715826 205.82617188 192.87402344 C203.3252154 192.87537726 200.82425912 192.87715709 198.32330322 192.8793335 C192.2183307 192.88343395 186.11337517 192.88281449 180.0084033 192.87992086 C175.04895648 192.87766703 170.0895131 192.87735421 165.13006592 192.87844467 C164.0732896 192.87867452 164.0732896 192.87867452 162.99516428 192.87890901 C161.56417354 192.87922872 160.1331828 192.87955294 158.70219207 192.87988161 C145.26807878 192.88273655 131.83397231 192.87944914 118.39986014 192.87408124 C106.86032002 192.86961319 95.32078995 192.87038912 83.78125 192.875 C70.39683936 192.8803455 57.0124347 192.88246186 43.62802315 192.87938774 C42.20214971 192.87906917 40.77627627 192.8787548 39.35040283 192.87844467 C38.64875452 192.8782904 37.94710622 192.87813612 37.22419584 192.87797717 C32.2678503 192.87711194 27.31150853 192.87857502 22.35516357 192.88092422 C15.69044183 192.88401358 9.02573623 192.88182982 2.36101532 192.87602997 C-0.09287738 192.87470162 -2.54677168 192.87509774 -5.00066376 192.87729263 C-8.33493726 192.88000122 -11.6691485 192.8766266 -15.00341797 192.87161255 C-16.48047683 192.87495863 -16.48047683 192.87495863 -17.98737526 192.87837231 C-18.87353209 192.87576456 -19.75968891 192.87315682 -20.67269897 192.87047005 C-21.82870385 192.87022652 -21.82870385 192.87022652 -23.00806236 192.86997807 C-24.75976563 192.74462891 -24.75976563 192.74462891 -25.75976562 191.74462891 C-25.86025086 189.01112142 -25.89592824 186.30284999 -25.88916016 183.56884766 C-25.89091248 182.71199371 -25.89266479 181.85513977 -25.89447021 180.97232056 C-25.8988898 178.12556971 -25.89595037 175.27888044 -25.89257812 172.43212891 C-25.89325113 170.46297188 -25.89422113 168.49381494 -25.89547729 166.5246582 C-25.89695441 162.39191906 -25.89479927 158.25920149 -25.89013672 154.12646484 C-25.88443943 148.8163837 -25.88771836 143.50635309 -25.89370918 138.1962738 C-25.89731442 134.12837337 -25.89617638 130.06048502 -25.89358139 125.99258423 C-25.89291202 124.03406773 -25.8937409 122.07555015 -25.89606094 120.11703491 C-25.89858686 117.38479691 -25.89474774 114.65264194 -25.88916016 111.92041016 C-25.89118439 111.10271149 -25.89320862 110.28501282 -25.89529419 109.4425354 C-25.87402808 103.85889136 -25.87402808 103.85889136 -24.75976562 102.74462891 C-23.28179092 102.65859684 -21.79977957 102.64052148 -20.31933594 102.65039062 C-18.90216278 102.65436356 -18.90216278 102.65436356 -17.45635986 102.65841675 C-16.42726501 102.66366364 -15.39817017 102.66891052 -14.33789062 102.67431641 C-12.17642424 102.66573046 -10.0149647 102.6552539 -7.85351562 102.64306641 C-4.43177403 102.62637019 -1.01155027 102.61961566 2.41015625 102.64501953 C5.70342915 102.66597153 8.99396717 102.64275223 12.28710938 102.61181641 C13.3081073 102.62920868 14.32910522 102.64660095 15.38104248 102.66452026 C20.61049687 102.6803997 20.61049687 102.6803997 25.00558472 100.21430969 C28.0024148 96.14384507 29.00603315 92.9323983 28.74804688 87.89306641 C27.89123232 84.26808175 25.81024999 82.37889492 23.24023438 79.74462891 C23.24023438 79.08462891 23.24023438 78.42462891 23.24023438 77.74462891 C21.78000854 77.78390503 21.78000854 77.78390503 20.2902832 77.82397461 C16.66568135 77.91472911 13.0411791 77.97196791 9.41577148 78.01928711 C7.84919323 78.04437437 6.28273138 78.07845306 4.71655273 78.12182617 C2.45983129 78.18274117 0.20466144 78.21089389 -2.05273438 78.23291016 C-2.74876266 78.25871658 -3.44479095 78.28452301 -4.16191101 78.31111145 C-7.82730772 78.31320783 -9.54558336 77.91436229 -12.44413757 75.61734009 C-15.22337693 72.16948413 -15.39151177 70.58978038 -15.40673828 66.21362305 C-15.42249908 64.91199722 -15.43825989 63.6103714 -15.45449829 62.26930237 C-15.44554728 60.85612133 -15.43529199 59.44294804 -15.42382812 58.02978516 C-15.42719917 56.5715647 -15.43205419 55.11334698 -15.43832397 53.65513611 C-15.44568427 50.60274436 -15.43502006 47.55108562 -15.41162109 44.4987793 C-15.38315737 40.59670815 -15.3995247 36.6963584 -15.42948341 32.79435062 C-15.44760194 29.78384062 -15.44177749 26.77373477 -15.42884445 23.7632122 C-15.42552161 22.32517732 -15.42955798 20.8871051 -15.44124222 19.44911385 C-15.45401932 17.43442668 -15.431073 15.41961001 -15.40673828 13.4050293 C-15.40276031 12.26095108 -15.39878235 11.11687286 -15.39468384 9.93812561 C-13.56131241 0.71667712 -8.2653416 -0.13755407 0 0 Z " fill="#384647" transform="translate(97.759765625,103.25537109375)"/>
<path d="M0 0 C0.9778093 -0.00730133 1.95561859 -0.01460266 2.96305847 -0.02212524 C6.19157642 -0.03832248 9.418082 -0.01113303 12.64648438 0.01806641 C14.891805 0.01910381 17.13712746 0.01806762 19.38244629 0.01504517 C24.08678326 0.01522455 28.79043427 0.03606865 33.49462891 0.07226562 C39.52416011 0.11764099 45.55268911 0.11872796 51.58234406 0.10523033 C56.21837265 0.09854672 60.85417282 0.11181829 65.49015808 0.1314888 C67.71330062 0.13918617 69.93646859 0.14149196 72.15962219 0.13831711 C75.26706329 0.13757517 78.37322059 0.16282982 81.48046875 0.1953125 C82.85835823 0.18788025 82.85835823 0.18788025 84.26408386 0.18029785 C88.44915055 0.25010643 90.669051 0.38676702 94.28771973 2.65396118 C97.51701447 6.11174948 97.3811785 8.29557539 97.43310547 12.95092773 C97.4491684 14.25600784 97.46523132 15.56108795 97.48178101 16.90571594 C97.49326781 18.33769073 97.50387646 19.7696728 97.51367188 21.20166016 C97.51899555 21.92173437 97.52431923 22.64180859 97.52980423 23.38370323 C97.55653114 27.19548859 97.57590694 31.00724126 97.59033203 34.8190918 C97.60697421 38.75364705 97.65174807 42.68736372 97.70270348 46.62160206 C97.7363831 49.64911342 97.74791012 52.67642595 97.75355911 55.70410728 C97.76027035 57.15419609 97.77548947 58.60427187 97.79944992 60.05417824 C97.83110847 62.08593714 97.82813603 64.11814573 97.82373047 66.15014648 C97.83181732 67.30549393 97.83990417 68.46084137 97.84823608 69.65119934 C97.04876717 73.71878785 95.45313534 75.20699462 92.24023438 77.74462891 C89.45185464 78.18466032 87.29971385 78.33548322 84.53320312 78.23291016 C83.44511101 78.22229805 83.44511101 78.22229805 82.33503723 78.21147156 C80.03152734 78.18361296 77.73050187 78.12090081 75.42773438 78.05712891 C73.86071234 78.03203454 72.29365197 78.00922335 70.7265625 77.98876953 C66.89683782 77.93381572 63.06895641 77.84761117 59.24023438 77.74462891 C58.94375 78.36982422 58.64726562 78.99501953 58.34179688 79.63916016 C57.24023438 81.74462891 57.24023438 81.74462891 55.61523438 83.43212891 C53.46692759 87.04519033 53.3144376 90.67599572 54.24023438 94.74462891 C55.76634941 97.50876583 57.46570007 100.13435657 59.24023438 102.74462891 C54.71977991 102.91212348 50.19915319 103.07269499 45.67822266 103.22680664 C44.1397436 103.28023282 42.60132944 103.3355627 41.06298828 103.39282227 C38.85398351 103.47471638 36.64483714 103.54979989 34.43554688 103.62353516 C33.74590851 103.65057022 33.05627014 103.67760529 32.34573364 103.70545959 C27.46797779 103.85850061 27.46797779 103.85850061 25.24023438 102.74462891 C25.78747121 99.37000176 26.29513437 97.66227891 28.24023438 94.74462891 C28.92297474 90.97159002 29.14924946 87.24592908 27.11914062 83.89306641 C25.87699659 82.46442482 24.56225173 81.09969669 23.24023438 79.74462891 C23.24023438 79.08462891 23.24023438 78.42462891 23.24023438 77.74462891 C21.78000854 77.78390503 21.78000854 77.78390503 20.2902832 77.82397461 C16.66568135 77.91472911 13.0411791 77.97196791 9.41577148 78.01928711 C7.84919323 78.04437437 6.28273138 78.07845306 4.71655273 78.12182617 C2.45983129 78.18274117 0.20466144 78.21089389 -2.05273438 78.23291016 C-2.74876266 78.25871658 -3.44479095 78.28452301 -4.16191101 78.31111145 C-7.82730772 78.31320783 -9.54558336 77.91436229 -12.44413757 75.61734009 C-15.22337693 72.16948413 -15.39151177 70.58978038 -15.40673828 66.21362305 C-15.42249908 64.91199722 -15.43825989 63.6103714 -15.45449829 62.26930237 C-15.44554728 60.85612133 -15.43529199 59.44294804 -15.42382812 58.02978516 C-15.42719917 56.5715647 -15.43205419 55.11334698 -15.43832397 53.65513611 C-15.44568427 50.60274436 -15.43502006 47.55108562 -15.41162109 44.4987793 C-15.38315737 40.59670815 -15.3995247 36.6963584 -15.42948341 32.79435062 C-15.44760194 29.78384062 -15.44177749 26.77373477 -15.42884445 23.7632122 C-15.42552161 22.32517732 -15.42955798 20.8871051 -15.44124222 19.44911385 C-15.45401932 17.43442668 -15.431073 15.41961001 -15.40673828 13.4050293 C-15.40276031 12.26095108 -15.39878235 11.11687286 -15.39468384 9.93812561 C-13.56131241 0.71667712 -8.2653416 -0.13755407 0 0 Z " fill="#04559D" transform="translate(97.759765625,103.25537109375)"/>
<path d="M0 0 C0.72421646 -0.0071553 1.44843292 -0.01431061 2.19459534 -0.02168274 C4.57894755 -0.0385363 6.96141045 -0.01918944 9.34570312 0.00219727 C11.00809891 0.00136825 12.67049461 -0.00109239 14.33288574 -0.00511169 C17.81315856 -0.00796738 21.292787 0.00670834 24.77294922 0.03417969 C29.22866507 0.06826268 33.68322894 0.06224243 38.13899994 0.04351711 C41.57063355 0.03293638 45.00200021 0.04189457 48.43360901 0.05690193 C50.07620958 0.06207636 51.71883812 0.0616109 53.36143494 0.05535698 C55.65953273 0.04989151 57.95599498 0.07031937 60.25390625 0.09765625 C62.21318054 0.10695412 62.21318054 0.10695412 64.21203613 0.11643982 C68.1696594 0.71289503 69.81876223 1.83630767 72.62695312 4.63110352 C74.27518117 7.92755961 73.79006474 11.59344612 73.79492188 15.21704102 C73.79991447 16.49703476 73.79991447 16.49703476 73.80500793 17.80288696 C73.81007556 19.61020366 73.81241631 21.41752972 73.81225586 23.22485352 C73.81443885 25.98803178 73.83258647 28.75080862 73.8515625 31.51391602 C73.85449716 33.26912298 73.85648147 35.02433185 73.85742188 36.77954102 C73.86460739 37.60569916 73.87179291 38.4318573 73.87919617 39.28305054 C73.84990407 46.65267309 73.84990407 46.65267309 71.62695312 49.63110352 C68.05035692 52.01550098 65.5019652 51.92050891 61.37329102 51.90576172 C60.63800674 51.91087265 59.90272247 51.91598358 59.14515686 51.92124939 C56.71322503 51.93515574 54.28157626 51.93418786 51.84960938 51.93188477 C50.15953974 51.93577116 48.46947108 51.94010571 46.77940369 51.94487 C43.23612299 51.95233446 39.69294193 51.95203933 36.1496582 51.94677734 C31.60879726 51.94098271 27.0683442 51.95791229 22.5275507 51.98112202 C19.03683589 51.99585344 15.54621944 51.99673187 12.05547905 51.99361229 C10.38133372 51.99412581 8.70718292 51.99936936 7.0330677 52.00942421 C4.69177876 52.02175996 2.35128595 52.0150147 0.01000977 52.00341797 C-0.68155212 52.01106171 -1.37311401 52.01870544 -2.08563232 52.02658081 C-5.09115581 51.99367353 -7.12480611 51.76932804 -9.77198792 50.29533386 C-14.4942589 45.38674094 -12.68147593 35.05498982 -12.72314453 28.58959961 C-12.73971573 26.70405749 -12.76702118 24.81857849 -12.80517578 22.93334961 C-12.85997886 20.20987488 -12.88182073 17.48786803 -12.89648438 14.76391602 C-12.91915375 13.92418243 -12.94182312 13.08444885 -12.96517944 12.2192688 C-12.96232941 11.42849945 -12.95947937 10.6377301 -12.95654297 9.82299805 C-12.96462982 9.13255402 -12.97271667 8.44210999 -12.98104858 7.73074341 C-11.06947869 1.12943235 -6.17673666 0.00454802 0 0 Z " fill="#AEFDFD" transform="translate(108.373046875,116.368896484375)"/>
<path d="M0 0 C12.23880658 -0.02254946 24.47759947 -0.04091418 36.71642208 -0.05181217 C42.39876512 -0.05704139 48.08109327 -0.06413973 53.76342773 -0.07543945 C59.24229136 -0.08626696 64.72114062 -0.09227654 70.20001411 -0.09487724 C72.29529611 -0.09673174 74.39057728 -0.10035282 76.4858532 -0.10573006 C79.40977584 -0.11293868 82.33363833 -0.11399102 85.25756836 -0.11352539 C86.57062958 -0.1189183 86.57062958 -0.1189183 87.91021729 -0.12442017 C93.88594784 -0.11405216 93.88594784 -0.11405216 95 1 C95 12.88 95 24.76 95 37 C63.65 37 32.3 37 0 37 C0 24.79 0 12.58 0 0 Z " fill="#4D5F61" transform="translate(96,234)"/>
<path d="M0 0 C1.79133978 -0.05391993 3.58313899 -0.09275571 5.375 -0.125 C6.37273437 -0.14820313 7.37046875 -0.17140625 8.3984375 -0.1953125 C11 0 11 0 13 2 C13.24050903 5.01187134 13.24050903 5.01187134 13.22705078 8.92822266 C13.22734283 9.64052536 13.22763489 10.35282806 13.22793579 11.0867157 C13.22654016 13.44595434 13.21096827 15.80487889 13.1953125 18.1640625 C13.19158319 19.79788032 13.18873583 21.43170038 13.18673706 23.06552124 C13.1790941 27.36952876 13.15943999 31.67340168 13.1373291 35.97735596 C13.1168849 40.36769795 13.1077384 44.75806165 13.09765625 49.1484375 C13.07619465 57.7656937 13.04100718 66.38281461 13 75 C20.59 75 28.18 75 36 75 C36 75.33 36 75.66 36 76 C-19.77 76 -75.54 76 -133 76 C-133 75.67 -133 75.34 -133 75 C-107.92 75 -82.84 75 -57 75 C-57 50.58 -57 26.16 -57 1 C-53.04 1 -49.08 1 -45 1 C-44.98541748 1.99854004 -44.97083496 2.99708008 -44.95581055 4.02587891 C-44.89759932 7.74986606 -44.82036923 11.47326292 -44.73754883 15.19677734 C-44.70440637 16.8047524 -44.67634146 18.41284081 -44.65356445 20.02099609 C-44.61982033 22.34000705 -44.56749806 24.65798931 -44.51171875 26.9765625 C-44.50532883 27.68930328 -44.4989389 28.40204407 -44.49235535 29.13638306 C-44.35688214 33.79209846 -43.48783693 37.05747005 -41 41 C-36.22427183 44.18381878 -30.75955944 43.33327105 -25.17602539 43.31567383 C-23.0732022 43.31251607 -20.97178969 43.33597128 -18.86914062 43.36132812 C-17.5286476 43.36360152 -16.18815081 43.36430443 -14.84765625 43.36328125 C-13.0224646 43.36775269 -13.0224646 43.36775269 -11.16040039 43.37231445 C-7.75211971 42.97079819 -6.5326736 42.20474867 -4 40 C-3.34 40 -2.68 40 -2 40 C-1.10037175 35.31937189 -0.79504376 30.72959146 -0.68359375 25.9765625 C-0.6524221 24.85729874 -0.6524221 24.85729874 -0.62062073 23.71542358 C-0.5556877 21.35203492 -0.49650429 18.98854336 -0.4375 16.625 C-0.39426116 15.01431265 -0.35064523 13.40363537 -0.30664062 11.79296875 C-0.20006474 7.86208229 -0.09864208 3.93109323 0 0 Z " fill="#F06D6E" transform="translate(290,130)"/>
<path d="M0 0 C1.32 0 2.64 0 4 0 C4.33 0.66 4.66 1.32 5 2 C5.99 2.33 6.98 2.66 8 3 C9.6875 5.0625 9.6875 5.0625 11 7 C13.88198773 5.82585685 15.30670069 4.67796428 17.5 2.375 C20 0 20 0 24 0 C24 0.66 24 1.32 24 2 C24.66 2 25.32 2 26 2 C28.125 3.875 28.125 3.875 30 6 C30 6.66 30 7.32 30 8 C30.99 8 31.98 8 33 8 C33.33 7.01 33.66 6.02 34 5 C34.66 5 35.32 5 36 5 C36.33 4.01 36.66 3.02 37 2 C37.66 2 38.32 2 39 2 C39 1.34 39 0.68 39 0 C42.875 0.875 42.875 0.875 44 2 C44.10402328 3.68653518 44.13853162 5.37741194 44.14526367 7.06713867 C44.15164352 8.14883835 44.15802338 9.23053802 44.16459656 10.34501648 C44.16570938 11.52409073 44.1668222 12.70316498 44.16796875 13.91796875 C44.17296135 15.72567497 44.17296135 15.72567497 44.17805481 17.56990051 C44.18313079 20.12805804 44.18546293 22.68622221 44.18530273 25.24438477 C44.18748093 29.15326961 44.2056069 33.06186859 44.22460938 36.97070312 C44.22754483 39.45312403 44.22952861 41.93554628 44.23046875 44.41796875 C44.23765427 45.58692184 44.24483978 46.75587494 44.25224304 47.96025085 C44.22135635 58.97780246 44.22135635 58.97780246 42 63 C37.74847457 66.70228161 34.5923976 67.51021436 29.02734375 67.53125 C27.71572266 67.53640625 26.40410156 67.5415625 25.05273438 67.546875 C24.37686279 67.53849609 23.70099121 67.53011719 23.00463867 67.52148438 C20.9387522 67.50001301 18.87632791 67.52134425 16.81054688 67.546875 C14.84504883 67.53914063 14.84504883 67.53914063 12.83984375 67.53125 C11.64738037 67.52673828 10.45491699 67.52222656 9.22631836 67.51757812 C5.32678712 66.89200066 3.72594981 65.82740445 1 63 C-1.38199504 58.86974762 -1.26212112 54.72054665 -1.1953125 50.07421875 C-1.1924826 49.32662796 -1.18965271 48.57903717 -1.18673706 47.80879211 C-1.17559469 45.4348612 -1.15050162 43.06131575 -1.125 40.6875 C-1.11496249 39.0722711 -1.10583799 37.45703624 -1.09765625 35.84179688 C-1.07567489 31.89438406 -1.04118657 27.94725726 -1 24 C-4.63 24 -8.26 24 -12 24 C-12 23.67 -12 23.34 -12 23 C-8.37 23 -4.74 23 -1 23 C-1.01160156 21.42347656 -1.02320313 19.84695312 -1.03515625 18.22265625 C-1.04453243 16.16927201 -1.05363282 14.1158865 -1.0625 12.0625 C-1.07087891 11.02158203 -1.07925781 9.98066406 -1.08789062 8.90820312 C-1.09111328 7.91884766 -1.09433594 6.92949219 -1.09765625 5.91015625 C-1.10289307 4.99371338 -1.10812988 4.07727051 -1.11352539 3.13305664 C-1 1 -1 1 0 0 Z " fill="#C5CFDD" transform="translate(246,107)"/>
<path d="M0 0 C0.94682648 -0.00087616 1.89365295 -0.00175232 2.86917114 -0.00265503 C5.9919955 0.00151795 9.11265937 0.04815743 12.23510742 0.09521484 C14.40271328 0.10640798 16.57033434 0.11494761 18.73796082 0.12094116 C24.43803959 0.14382992 30.13719834 0.20275478 35.83691406 0.26916504 C41.65506545 0.33058584 47.47336577 0.35795582 53.29174805 0.38818359 C64.70426124 0.45249697 76.11609215 0.554878 87.52807617 0.68115234 C87.52807617 1.01115234 87.52807617 1.34115234 87.52807617 1.68115234 C83.07307617 2.17615234 83.07307617 2.17615234 78.52807617 2.68115234 C78.52807617 3.34115234 78.52807617 4.00115234 78.52807617 4.68115234 C51.46807617 4.68115234 24.40807617 4.68115234 -3.47192383 4.68115234 C-3.47192383 8.31115234 -3.47192383 11.94115234 -3.47192383 15.68115234 C-4.10173676 18.35676278 -4.76540902 21.02476525 -5.47192383 23.68115234 C-5.73719864 26.4038778 -5.7533796 29.10332614 -5.73754883 31.83740234 C-5.74041901 32.95725525 -5.74041901 32.95725525 -5.74334717 34.09973145 C-5.74469812 35.66610047 -5.74107854 37.23248111 -5.73266602 38.79882812 C-5.72195055 41.17522706 -5.73259831 43.55087023 -5.74536133 45.92724609 C-5.74403954 47.45979982 -5.74147675 48.99235308 -5.73754883 50.52490234 C-5.74159729 51.2240979 -5.74564575 51.92329346 -5.74981689 52.64367676 C-5.70346772 57.60111384 -4.81696098 61.9074058 -3.47192383 66.68115234 C-1.97274682 66.997577 -0.4725227 67.30904083 1.02807617 67.61865234 C1.86338867 67.79267578 2.69870117 67.96669922 3.55932617 68.14599609 C12.22475937 69.70805445 20.73836753 69.89173665 29.52807617 69.99755859 C30.97396387 70.01816479 32.41984604 70.03916212 33.86572266 70.06053162 C37.64674364 70.11537426 41.42781552 70.16494807 45.20892334 70.21337891 C49.07707172 70.26387241 52.9451474 70.31941218 56.81323242 70.37451172 C64.38478521 70.48162988 71.956399 70.58317506 79.52807617 70.68115234 C79.03307617 72.66115234 79.03307617 72.66115234 78.52807617 74.68115234 C79.47682617 74.63990234 80.42557617 74.59865234 81.40307617 74.55615234 C84.52807617 74.68115234 84.52807617 74.68115234 86.52807617 76.68115234 C82.31056335 76.73061348 78.09320449 76.76690061 73.87548828 76.79101562 C72.44088805 76.80106934 71.00630829 76.81471428 69.57177734 76.83203125 C67.5089818 76.85630783 65.44645733 76.86764153 63.38354492 76.87646484 C62.14241943 76.88693848 60.90129395 76.89741211 59.62255859 76.90820312 C56.52807617 76.68115234 56.52807617 76.68115234 53.52807617 74.68115234 C53.52807617 74.02115234 53.52807617 73.36115234 53.52807617 72.68115234 C52.53807617 72.68115234 51.54807617 72.68115234 50.52807617 72.68115234 C50.03307617 74.66115234 50.03307617 74.66115234 49.52807617 76.68115234 C48.53807617 76.68115234 47.54807617 76.68115234 46.52807617 76.68115234 C46.52807617 75.36115234 46.52807617 74.04115234 46.52807617 72.68115234 C39.92807617 72.68115234 33.32807617 72.68115234 26.52807617 72.68115234 C26.52807617 73.34115234 26.52807617 74.00115234 26.52807617 74.68115234 C27.84807617 75.01115234 29.16807617 75.34115234 30.52807617 75.68115234 C29.86807617 76.67115234 29.20807617 77.66115234 28.52807617 78.68115234 C25.67121728 78.93896597 23.04891045 79.00793906 20.19604492 78.93115234 C19.36728348 78.91656982 18.53852203 78.9019873 17.68464661 78.88696289 C15.92841966 78.85079225 14.17234359 78.80653931 12.41650391 78.75488281 C9.73659479 78.68172611 7.05839789 78.65068054 4.37768555 78.62255859 C2.67124245 78.58216443 0.96485621 78.53927603 -0.74145508 78.49365234 C-1.54057816 78.48817383 -2.33970123 78.48269531 -3.16304016 78.47705078 C-3.9169957 78.44772461 -4.67095123 78.41839844 -5.44775391 78.38818359 C-6.10568436 78.37247314 -6.76361481 78.3567627 -7.44148254 78.34057617 C-10.75752947 77.26362784 -12.32363945 75.36917514 -14.47192383 72.68115234 C-15.10684204 69.61463928 -15.10684204 69.61463928 -15.11889648 66.15014648 C-15.13465729 64.84852066 -15.15041809 63.54689484 -15.16665649 62.20582581 C-15.15770549 60.79264477 -15.14745019 59.37947148 -15.13598633 57.96630859 C-15.13935737 56.50808814 -15.1442124 55.04987042 -15.15048218 53.59165955 C-15.15784247 50.53926779 -15.14717827 47.48760905 -15.1237793 44.43530273 C-15.09531558 40.53323159 -15.11168291 36.63288184 -15.14164162 32.73087406 C-15.15976014 29.72036406 -15.15393569 26.71025821 -15.14100266 23.69973564 C-15.13767981 22.26170076 -15.14171619 20.82362854 -15.15340042 19.38563728 C-15.16617752 17.37095012 -15.14323121 15.35613344 -15.11889648 13.34155273 C-15.11491852 12.19747452 -15.11094055 11.0533963 -15.10684204 9.87464905 C-13.30052505 0.78927832 -8.16656097 -0.19815216 0 0 Z " fill="#0256A0" transform="translate(97.471923828125,103.31884765625)"/>
<path d="M0 0 C0.76819565 -0.00204437 1.5363913 -0.00408875 2.3278656 -0.00619507 C4.85066026 -0.00918765 7.37279156 0.00922305 9.89550781 0.02832031 C11.65333901 0.03137985 13.41117264 0.03325449 15.16900635 0.03399658 C18.84404854 0.03858955 22.51887037 0.05298064 26.19384766 0.07519531 C30.91069036 0.10356024 35.62736034 0.11441631 40.34428024 0.11887741 C43.96958144 0.12302697 47.59484758 0.13283921 51.22013092 0.1447525 C52.96011321 0.15045803 54.70009888 0.1552158 56.44008636 0.15901947 C58.86506629 0.16587079 61.28990782 0.17949564 63.71484375 0.1953125 C64.79798103 0.19698929 64.79798103 0.19698929 65.90299988 0.19869995 C70.8692321 0.24174496 70.8692321 0.24174496 73.09863281 1.35644531 C73.09863281 2.01644531 73.09863281 2.67644531 73.09863281 3.35644531 C73.71738281 3.41832031 74.33613281 3.48019531 74.97363281 3.54394531 C77.09863281 4.35644531 77.09863281 4.35644531 78.21264648 6.30200195 C79.45113079 10.57168427 79.40391529 14.61518314 79.39941406 19.04003906 C79.40369919 19.97316422 79.40798431 20.90628937 79.41239929 21.86769104 C79.41813051 23.83699738 79.41865177 25.80632488 79.41430664 27.77563477 C79.41114731 30.78015429 79.43461879 33.78368806 79.45996094 36.78808594 C79.46223419 38.70540241 79.4629373 40.62272152 79.46191406 42.54003906 C79.47112381 43.43395859 79.48033356 44.32787811 79.48982239 45.24888611 C79.45233368 50.33040901 79.09423191 54.0483562 76.09863281 58.35644531 C71.98697516 61.4856831 68.85669676 61.7271893 63.75732422 61.71289062 C63.03632034 61.714935 62.31531647 61.71697937 61.57246399 61.71908569 C59.19811308 61.72208419 56.8244633 61.70364026 54.45019531 61.68457031 C52.79259411 61.68150997 51.13499033 61.67963594 49.47738647 61.67889404 C46.00565725 61.67429627 42.53416065 61.65989402 39.0625 61.63769531 C34.62524893 61.6094578 30.18818115 61.59848715 25.75084877 61.59401321 C21.50477432 61.58884058 17.2587453 61.57430454 13.01269531 61.55957031 C12.20845753 61.55768959 11.40421974 61.55580887 10.57561111 61.55387115 C8.28325601 61.54694818 5.99104022 61.53328684 3.69873047 61.51757812 C2.39698883 61.51075012 1.09524719 61.50392212 -0.24594116 61.49688721 C-9.84386825 61.12813373 -9.84386825 61.12813373 -13.21386719 58.66894531 C-16.82926917 53.71450556 -17.20994585 48.49895411 -17.20214844 42.53613281 C-17.20643356 41.79622101 -17.21071869 41.0563092 -17.21513367 40.29397583 C-17.22085334 38.73245257 -17.22139472 37.17090267 -17.21704102 35.609375 C-17.21390391 33.25895794 -17.23728843 30.90983005 -17.26269531 28.55957031 C-17.34995586 9.76946624 -17.34995586 9.76946624 -13.90136719 3.35644531 C-9.28359452 0.45894552 -5.32660266 -0.0687449 0 0 Z M-11.90136719 10.35644531 C-12.62260159 12.41110961 -12.62260159 12.41110961 -12.51660156 14.51660156 C-12.52590698 15.30091553 -12.5352124 16.08522949 -12.5447998 16.89331055 C-12.52840454 17.72677002 -12.51200928 18.56022949 -12.49511719 19.41894531 C-12.49515747 20.287854 -12.49519775 21.1567627 -12.49523926 22.05200195 C-12.48989113 23.88435115 -12.47233855 25.7167003 -12.44335938 27.54882812 C-12.40150254 30.34739571 -12.40229329 33.1435549 -12.40917969 35.94238281 C-12.39868633 37.72625364 -12.38574744 39.5101121 -12.37011719 41.29394531 C-12.36991577 42.12740479 -12.36971436 42.96086426 -12.36950684 43.81958008 C-12.27527656 48.46429753 -11.91495474 51.58669442 -8.90136719 55.35644531 C-5.96139932 56.82642925 -2.98527767 56.52101269 0.23876953 56.53344727 C1.3414769 56.54330406 1.3414769 56.54330406 2.46646118 56.55335999 C4.90374855 56.57310102 7.34097431 56.58475651 9.77832031 56.59472656 C10.6099683 56.59880209 11.44161629 56.60287762 12.29846573 56.60707664 C16.6991374 56.62793953 21.09977784 56.64224102 25.50048828 56.65161133 C30.04928681 56.66268415 34.59759726 56.69709312 39.14622307 56.73678303 C42.6412142 56.76290599 46.13608819 56.77129923 49.63116837 56.77489281 C51.30813015 56.77976897 52.98508635 56.79141222 54.66195297 56.8099308 C57.0082667 56.83423439 59.35330643 56.83337412 61.69970703 56.82641602 C62.39283997 56.83922607 63.0859729 56.85203613 63.80010986 56.86523438 C67.16864818 56.82880532 68.82450192 56.57397119 71.49856567 54.45207214 C74.59956928 50.39065109 74.29280494 46.74429171 74.33691406 41.80566406 C74.34902168 40.52922783 74.34902168 40.52922783 74.3613739 39.227005 C74.37521575 37.42389972 74.38593746 35.62076823 74.39379883 33.81762695 C74.4110007 31.06508464 74.45488331 28.31374693 74.49902344 25.56152344 C74.50915144 23.80957914 74.51766721 22.05762464 74.52441406 20.30566406 C74.55067619 19.07416878 74.55067619 19.07416878 74.57746887 17.8177948 C74.56227324 13.79770079 74.40416532 11.83794634 72.19702148 8.35961914 C68.55244141 4.88041268 66.03108116 5.21220976 61.06616211 5.16357422 C60.34238373 5.15539673 59.61860535 5.14721924 58.87289429 5.13879395 C56.47288848 5.11394118 54.07294182 5.09742426 51.67285156 5.08300781 C50.44380065 5.0750223 50.44380065 5.0750223 49.18992043 5.06687546 C44.85294149 5.04014425 40.51599134 5.02076938 36.17895508 5.00634766 C31.69963953 4.98970045 27.22105984 4.94492275 22.74202251 4.89397621 C19.29760393 4.86031731 15.8533603 4.84877178 12.4087925 4.84312057 C10.75775339 4.83640418 9.10672595 4.82117185 7.45584679 4.79722977 C5.14305065 4.76560228 2.8322428 4.76553662 0.51928711 4.77294922 C-1.4535601 4.76081894 -1.4535601 4.76081894 -3.46626282 4.7484436 C-7.79737216 5.51503512 -9.26364678 6.89374009 -11.90136719 10.35644531 Z " fill="#01487F" transform="translate(107.9013671875,111.6435546875)"/>
<path d="M0 0 C19.8 0 39.6 0 60 0 C52 16 52 16 48 22 C44.96865557 22.54932781 42.74912497 22.70768839 39.734375 22.5859375 C38.94097717 22.57744781 38.14757935 22.56895813 37.33013916 22.56021118 C34.8020302 22.52668692 32.27714037 22.4514198 29.75 22.375 C28.03390032 22.34489867 26.31775051 22.31752314 24.6015625 22.29296875 C20.39980591 22.22690014 16.20044819 22.1233937 12 22 C9.99654339 18.52281278 7.99781651 15.04293033 6 11.5625 C5.42765625 10.56927734 4.8553125 9.57605469 4.265625 8.55273438 C3.72421875 7.60849609 3.1828125 6.66425781 2.625 5.69140625 C2.12226562 4.81685791 1.61953125 3.94230957 1.1015625 3.04125977 C0 1 0 1 0 0 Z " fill="#C4D0DD" transform="translate(113,234)"/>
<path d="M0 0 C1.98 0.66 3.96 1.32 6 2 C6.33 1.67 6.66 1.34 7 1 C8.99964982 0.91241997 11.0023611 0.89303424 13.00390625 0.90234375 C14.21884766 0.90556641 15.43378906 0.90878906 16.68554688 0.91210938 C17.96494141 0.92048828 19.24433594 0.92886719 20.5625 0.9375 C21.84576172 0.94201172 23.12902344 0.94652344 24.45117188 0.95117188 C27.63416022 0.96300455 30.81705762 0.97948932 34 1 C33.38722388 3.96175123 32.74627478 5.38058783 31 8 C30.57123005 10.00650796 30.57123005 10.00650796 30.5625 12.1875 C30.52253906 12.90292969 30.48257813 13.61835938 30.44140625 14.35546875 C31.30524884 18.44512913 33.66717483 21.58024836 36 25 C31.47954554 25.16749457 26.95891882 25.32806608 22.43798828 25.48217773 C20.89950922 25.53560391 19.36109506 25.59093379 17.82275391 25.64819336 C15.61374914 25.73008748 13.40460276 25.80517099 11.1953125 25.87890625 C10.50567413 25.90594131 9.81603577 25.93297638 9.10549927 25.96083069 C4.22774341 26.11387171 4.22774341 26.11387171 2 25 C2.54723683 21.62537285 3.0549 19.91765 5 17 C5.68274037 13.22696112 5.90901509 9.50130018 3.87890625 6.1484375 C2.63676221 4.71979591 1.32201735 3.35506779 0 2 C0 1.34 0 0.68 0 0 Z " fill="#04437D" transform="translate(121,181)"/>
<path d="M0 0 C9.9 0 19.8 0 30 0 C30 7.26 30 14.52 30 22 C20.1 22 10.2 22 0 22 C0 14.74 0 7.48 0 0 Z " fill="#CB0125" transform="translate(280,226)"/>
<path d="M0 0 C1.25554687 -0.00128906 2.51109375 -0.00257813 3.8046875 -0.00390625 C4.46178711 -0.00181152 5.11888672 0.0002832 5.79589844 0.00244141 C7.80411335 0.00779016 9.81210459 0.00249559 11.8203125 -0.00390625 C13.07585937 -0.00261719 14.33140625 -0.00132812 15.625 0 C16.78644531 0.00112793 17.94789063 0.00225586 19.14453125 0.00341797 C21.8125 0.1328125 21.8125 0.1328125 22.8125 1.1328125 C22.89919432 2.6215311 22.91953494 4.1142575 22.91015625 5.60546875 C22.90693359 6.50458984 22.90371094 7.40371094 22.90039062 8.33007812 C22.89201172 9.27560547 22.88363281 10.22113281 22.875 11.1953125 C22.87048828 12.14470703 22.86597656 13.09410156 22.86132812 14.07226562 C22.8495011 16.42584315 22.83302025 18.77929727 22.8125 21.1328125 C18.7007744 21.15746996 14.58907722 21.17565209 10.47729492 21.18774414 C9.07754772 21.1927833 7.6778058 21.19961466 6.27807617 21.20825195 C4.27004223 21.2203357 2.26197043 21.22551057 0.25390625 21.23046875 C-0.95579834 21.23570557 -2.16550293 21.24094238 -3.41186523 21.24633789 C-6.1875 21.1328125 -6.1875 21.1328125 -7.1875 20.1328125 C-7.28610131 18.72932515 -7.31828937 17.32100773 -7.3203125 15.9140625 C-7.32160156 15.06457031 -7.32289063 14.21507812 -7.32421875 13.33984375 C-7.32035156 12.44652344 -7.31648437 11.55320313 -7.3125 10.6328125 C-7.31636719 9.73949219 -7.32023438 8.84617188 -7.32421875 7.92578125 C-7.32292969 7.07628906 -7.32164062 6.22679687 -7.3203125 5.3515625 C-7.31918457 4.56716797 -7.31805664 3.78277344 -7.31689453 2.97460938 C-7.0226386 -1.21381842 -3.41878686 0.00332013 0 0 Z " fill="#54DE61" transform="translate(210.1875,226.8671875)"/>
<path d="M0 0 C1.25554687 -0.00128906 2.51109375 -0.00257813 3.8046875 -0.00390625 C4.46178711 -0.00181152 5.11888672 0.0002832 5.79589844 0.00244141 C7.80411335 0.00779016 9.81210459 0.00249559 11.8203125 -0.00390625 C13.07585937 -0.00261719 14.33140625 -0.00132812 15.625 0 C16.78644531 0.00112793 17.94789063 0.00225586 19.14453125 0.00341797 C21.8125 0.1328125 21.8125 0.1328125 22.8125 1.1328125 C22.89919432 2.6215311 22.91953494 4.1142575 22.91015625 5.60546875 C22.90765869 6.41508057 22.90516113 7.22469238 22.90258789 8.05883789 C22.89348389 9.09387451 22.88437988 10.12891113 22.875 11.1953125 C22.854375 14.4746875 22.83375 17.7540625 22.8125 21.1328125 C13.2425 21.1328125 3.6725 21.1328125 -6.1875 21.1328125 C-7.32695516 18.85390217 -7.31644214 17.56499146 -7.3203125 15.03515625 C-7.32160156 14.23400391 -7.32289063 13.43285156 -7.32421875 12.60742188 C-7.32035156 11.77017578 -7.31648437 10.93292969 -7.3125 10.0703125 C-7.31636719 9.22919922 -7.32023438 8.38808594 -7.32421875 7.52148438 C-7.31241579 0.19774975 -7.20162029 0.0069938 0 0 Z " fill="#F4E273" transform="translate(248.1875,226.8671875)"/>
<path d="M0 0 C1.3364003 0.00067978 1.3364003 0.00067978 2.69979858 0.00137329 C3.6330748 -0.00198532 4.56635101 -0.00534393 5.52790833 -0.00880432 C8.62957063 -0.01834516 11.73117914 -0.02025899 14.83285522 -0.02133179 C16.97897871 -0.02454215 19.12510197 -0.02790604 21.27122498 -0.03141785 C25.7763927 -0.03741694 30.28154121 -0.03925694 34.78671265 -0.03866577 C40.57203357 -0.03856409 46.35723192 -0.05221859 52.14252377 -0.06943798 C56.5767626 -0.08053248 61.01097156 -0.08258577 65.44522285 -0.08205605 C67.57875555 -0.08323993 69.71228892 -0.08768441 71.84580803 -0.09538841 C74.8245704 -0.10513716 77.80306354 -0.10233061 80.78182983 -0.09628296 C81.67073914 -0.10190247 82.55964844 -0.10752197 83.47549438 -0.11331177 C89.57719628 -0.08167824 89.57719628 -0.08167824 91.80551147 2.14663696 C91.47551147 3.46663696 91.14551147 4.78663696 90.80551147 6.14663696 C58.79551147 6.14663696 26.78551147 6.14663696 -6.19448853 6.14663696 C-6.52448853 4.49663696 -6.85448853 2.84663696 -7.19448853 1.14663696 C-5.29922388 -0.74862768 -2.52271251 0.01334502 0 0 Z " fill="#BCC9D3" transform="translate(214.19448852539063,270.8533630371094)"/>
<path d="M0 0 C2.97 0 5.94 0 9 0 C9.88646265 14.15612671 10.04919251 28.20438336 9.625 42.375 C9.60357941 43.13713806 9.58215881 43.89927612 9.56008911 44.68450928 C9.49695239 46.86024837 9.42608503 49.03556139 9.3515625 51.2109375 C9.28702881 53.10271729 9.28702881 53.10271729 9.22119141 55.03271484 C9 58 9 58 8 60 C6.68 60 5.36 60 4 60 C4 57.36 4 54.72 4 52 C3.34 52 2.68 52 2 52 C2 44.74 2 37.48 2 30 C1.34 30 0.68 30 0 30 C0 36.6 0 43.2 0 50 C-0.99 50.495 -0.99 50.495 -2 51 C-2.66 50.67 -3.32 50.34 -4 50 C-4 44.72 -4 39.44 -4 34 C-3.34 34 -2.68 34 -2 34 C-2 30.7 -2 27.4 -2 24 C-1.34 23.67 -0.68 23.34 0 23 C1.24737459 18.6796231 1.31895332 14.15518413 1.5625 9.6875 C1.62727539 8.57665039 1.62727539 8.57665039 1.69335938 7.44335938 C1.79870432 5.62908536 1.89978316 3.8145645 2 2 C1.34 2 0.68 2 0 2 C0 1.34 0 0.68 0 0 Z " fill="#F46C6A" transform="translate(292,142)"/>
<path d="M0 0 C1.98 0 3.96 0 6 0 C6 0.66 6 1.32 6 2 C23.16 2 40.32 2 58 2 C58 4.64 58 7.28 58 10 C38.53 10 19.06 10 -1 10 C-0.67 6.7 -0.34 3.4 0 0 Z " fill="#F8696D" transform="translate(234,194)"/>
<path d="M0 0 C0.33 0 0.66 0 1 0 C1 24.09 1 48.18 1 73 C8.59 73 16.18 73 24 73 C24 73.33 24 73.66 24 74 C-31.77 74 -87.54 74 -145 74 C-145 73.67 -145 73.34 -145 73 C-133.56261012 72.8254958 -122.12511095 72.65935059 -110.6875 72.5 C-109.83533401 72.48812275 -108.98316803 72.4762455 -108.10517883 72.46400833 C-75.40108014 72.01118844 -42.70719339 71.87266612 -10 72 C-10 69.36 -10 66.72 -10 64 C-10.66 64 -11.32 64 -12 64 C-11.84152588 63.43829102 -11.68305176 62.87658203 -11.51977539 62.29785156 C-10.97811638 59.90325571 -10.79358526 57.68561447 -10.68359375 55.234375 C-10.64169922 54.34492188 -10.59980469 53.45546875 -10.55664062 52.5390625 C-10.51732422 51.61867187 -10.47800781 50.69828125 -10.4375 49.75 C-10.37272461 48.34621094 -10.37272461 48.34621094 -10.30664062 46.9140625 C-10.2008195 44.60951359 -10.09873443 42.30486161 -10 40 C-9.34 40 -8.68 40 -8 40 C-8 47.26 -8 54.52 -8 62 C-7.34 62 -6.68 62 -6 62 C-6 64.64 -6 67.28 -6 70 C-4.68 70 -3.36 70 -2 70 C-1.34 46.9 -0.68 23.8 0 0 Z " fill="#D08589" transform="translate(302,132)"/>
<path d="M0 0 C1.2065625 0.0309375 1.2065625 0.0309375 2.4375 0.0625 C0.4575 1.0525 0.4575 1.0525 -1.5625 2.0625 C-1.39918686 2.63871094 -1.23587372 3.21492188 -1.06761169 3.80859375 C-0.57343485 6.01370657 -0.45375039 7.87192891 -0.48071289 10.125 C-0.4872438 10.91261719 -0.49377472 11.70023438 -0.50050354 12.51171875 C-0.51193893 13.35347656 -0.52337433 14.19523438 -0.53515625 15.0625 C-0.54779938 16.85416476 -0.56016057 18.64583153 -0.57226562 20.4375 C-0.59710807 23.25527224 -0.62512347 26.07293981 -0.65844727 28.890625 C-0.68864485 31.61459015 -0.70641979 34.33842091 -0.72265625 37.0625 C-0.73611588 37.90425781 -0.7495755 38.74601562 -0.76344299 39.61328125 C-0.76682175 40.40089844 -0.7702005 41.18851563 -0.77368164 42 C-0.78113907 42.68964844 -0.7885965 43.37929687 -0.79627991 44.08984375 C-0.51559097 46.45832272 0.19219229 48.0367279 1.4375 50.0625 C4.36826346 51.52788173 7.33451357 51.24116576 10.54931641 51.26782227 C11.28112625 51.27772186 12.0129361 51.28762146 12.766922 51.29782104 C15.19093568 51.32946199 17.61496898 51.35420366 20.0390625 51.37890625 C21.71772782 51.39947354 23.39638793 51.42046995 25.07504272 51.44187927 C29.49731231 51.49712318 33.91962881 51.54652221 38.34197998 51.59472656 C42.85302922 51.64492467 47.36401018 51.70061955 51.875 51.75585938 C60.72910836 51.8634693 69.58327596 51.96490797 78.4375 52.0625 C78.4375 52.3925 78.4375 52.7225 78.4375 53.0625 C52.6975 53.3925 26.9575 53.7225 0.4375 54.0625 C0.4375 53.4025 0.4375 52.7425 0.4375 52.0625 C-1.2125 52.0625 -2.8625 52.0625 -4.5625 52.0625 C-6.39701776 47.37555589 -6.8697355 43.1519911 -6.86328125 38.171875 C-6.86756638 37.42721985 -6.8718515 36.6825647 -6.87626648 35.91534424 C-6.88198493 34.34542858 -6.88252845 32.77548644 -6.87817383 31.20556641 C-6.87502743 28.83318533 -6.89845541 26.46206982 -6.92382812 24.08984375 C-6.95660241 16.07184072 -6.90480543 8.53573238 -3.5625 1.0625 C-2.5625 0.0625 -2.5625 0.0625 0 0 Z " fill="#115283" transform="translate(97.5625,115.9375)"/>
<path d="M0 0 C1.32 0 2.64 0 4 0 C4.66 0.66 5.32 1.32 6 2 C7.93681136 2.27654388 7.93681136 2.27654388 10.1328125 2.1953125 C10.93847656 2.18886719 11.74414062 2.18242187 12.57421875 2.17578125 C13.41597656 2.15902344 14.25773437 2.14226562 15.125 2.125 C15.97449219 2.11597656 16.82398438 2.10695312 17.69921875 2.09765625 C19.79959884 2.07405647 21.89983444 2.03818483 24 2 C24.042721 3.66611905 24.04063832 5.33382885 24 7 C21.94077598 9.05922402 17.78291876 8.41427579 14.9375 8.5625 C13.79958008 8.62727539 13.79958008 8.62727539 12.63867188 8.69335938 C10.75934562 8.79973633 8.87969756 8.90039934 7 9 C6.34 10.65 5.68 12.3 5 14 C5.99 13.34 6.98 12.68 8 12 C10.58457128 11.83168907 13.04545273 11.76643666 15.625 11.8125 C16.31851562 11.81314453 17.01203125 11.81378906 17.7265625 11.81445312 C22.85956743 11.85956743 22.85956743 11.85956743 24 13 C24 14.98 24 16.96 24 19 C17.4 19.33 10.8 19.66 4 20 C4 20.66 4 21.32 4 22 C3.34 22 2.68 22 2 22 C2 15.4 2 8.8 2 2 C1.34 2 0.68 2 0 2 C0 1.34 0 0.68 0 0 Z " fill="#BFCCD6" transform="translate(252,142)"/>
<path d="M0 0 C0.66 0.33 1.32 0.66 2 1 C1.51202438 1.70348068 1.02404877 2.40696136 0.52128601 3.13175964 C-1.19887867 6.37496685 -1.36438659 8.24885149 -1.34057617 11.8918457 C-1.34034958 13.05267166 -1.34012299 14.21349762 -1.33988953 15.40950012 C-1.32440567 16.65237289 -1.30892181 17.89524567 -1.29296875 19.17578125 C-1.28872391 20.45607712 -1.28447906 21.73637299 -1.28010559 23.0554657 C-1.26869137 26.44713133 -1.23925455 29.83840707 -1.20599365 33.22991943 C-1.17521835 36.69554369 -1.16158439 40.16123139 -1.14648438 43.62695312 C-1.11342192 50.41813729 -1.06322669 57.2090333 -1 64 C2.05080946 60.94919054 1.35788708 57.37189221 1.4140625 53.2734375 C1.43342865 52.41062164 1.4527948 51.54780579 1.4727478 50.65884399 C1.53262204 47.89766384 1.57895998 45.13644216 1.625 42.375 C1.66317259 40.50518995 1.70222389 38.63539762 1.7421875 36.765625 C1.83832992 32.17722691 1.92233166 27.58874649 2 23 C2.66 22.67 3.32 22.34 4 22 C4 37.84 4 53.68 4 70 C3.01 70.495 3.01 70.495 2 71 C4.64 71.33 7.28 71.66 10 72 C10 72.66 10 73.32 10 74 C18.25 74 26.5 74 35 74 C35 74.33 35 74.66 35 75 C30.39194479 75.12394421 25.78486719 75.21449675 21.17553711 75.2746582 C19.60895886 75.29974547 18.04249701 75.33382415 16.47631836 75.37719727 C14.21959691 75.43811226 11.96442706 75.46626499 9.70703125 75.48828125 C9.01100296 75.51408768 8.31497467 75.5398941 7.59785461 75.56648254 C3.93338994 75.56857839 2.21320194 75.16867431 -0.68635559 72.87469482 C-3.47327988 69.41195145 -3.62308638 67.82989257 -3.61523438 63.43725586 C-3.62453979 62.12917465 -3.63384521 60.82109344 -3.64343262 59.47337341 C-3.62784697 58.05385248 -3.61126204 56.63434222 -3.59375 55.21484375 C-3.59203791 53.75183714 -3.59210558 52.28882747 -3.59387207 50.82582092 C-3.59222119 47.76500965 -3.57356565 44.70493292 -3.54199219 41.64428711 C-3.50227921 37.72441216 -3.4979522 33.80549694 -3.50545502 29.88545895 C-3.5085266 26.86649306 -3.49639827 23.84774228 -3.47932434 20.82882881 C-3.47230265 19.38357454 -3.4691688 17.9382959 -3.47001648 16.49302483 C-3.46821577 14.47306487 -3.44455077 12.45316022 -3.41992188 10.43334961 C-3.41150269 9.28483017 -3.4030835 8.13631073 -3.39440918 6.95298767 C-2.9649676 3.7377083 -2.17238507 2.35540397 0 0 Z " fill="#08508C" transform="translate(86,106)"/>
<path d="M0 0 C9.9 0 19.8 0 30 0 C30 7.26 30 14.52 30 22 C20.1 22 10.2 22 0 22 C0 14.74 0 7.48 0 0 Z M1 4 C1 9.28 1 14.56 1 20 C9.91 20 18.82 20 28 20 C28.020625 17.73125 28.04125 15.4625 28.0625 13.125 C28.07410156 11.84882813 28.08570313 10.57265625 28.09765625 9.2578125 C28.23176569 6.11335348 28.23176569 6.11335348 27 4 C18.42 4 9.84 4 1 4 Z " fill="#A51231" transform="translate(280,226)"/>
<path d="M0 0 C1.16781006 0.00523682 2.33562012 0.01047363 3.53881836 0.01586914 C4.79887695 0.0190918 6.05893555 0.02231445 7.35717773 0.02563477 C8.6976732 0.03399136 10.03816799 0.04245632 11.37866211 0.05102539 C12.72306153 0.05603879 14.06746271 0.06060197 15.41186523 0.06469727 C18.71334151 0.07653051 22.01473014 0.09301568 25.31616211 0.11352539 C25.31616211 0.44352539 25.31616211 0.77352539 25.31616211 1.11352539 C23.33616211 1.11352539 21.35616211 1.11352539 19.31616211 1.11352539 C19.31616211 1.77352539 19.31616211 2.43352539 19.31616211 3.11352539 C12.71616211 3.11352539 6.11616211 3.11352539 -0.68383789 3.11352539 C-0.68383789 8.39352539 -0.68383789 13.67352539 -0.68383789 19.11352539 C7.56616211 19.11352539 15.81616211 19.11352539 24.31616211 19.11352539 C24.64616211 13.50352539 24.97616211 7.89352539 25.31616211 2.11352539 C25.64616211 2.11352539 25.97616211 2.11352539 26.31616211 2.11352539 C26.31616211 8.38352539 26.31616211 14.65352539 26.31616211 21.11352539 C22.20438284 21.13643933 18.09276553 21.1563649 13.98095703 21.16845703 C12.58120983 21.17349619 11.18146791 21.18032756 9.78173828 21.18896484 C7.77370434 21.20104859 5.76563253 21.20622346 3.75756836 21.21118164 C2.54786377 21.21641846 1.33815918 21.22165527 0.09179688 21.22705078 C-2.68383789 21.11352539 -2.68383789 21.11352539 -3.68383789 20.11352539 C-3.7824392 18.71003804 -3.81462726 17.30172062 -3.81665039 15.89477539 C-3.81793945 15.0452832 -3.81922852 14.19579102 -3.82055664 13.32055664 C-3.81668945 12.42723633 -3.81282227 11.53391602 -3.80883789 10.61352539 C-3.81270508 9.72020508 -3.81657227 8.82688477 -3.82055664 7.90649414 C-3.81926758 7.05700195 -3.81797852 6.20750977 -3.81665039 5.33227539 C-3.81552246 4.54788086 -3.81439453 3.76348633 -3.81323242 2.95532227 C-3.60257561 -0.04315891 -3.02620028 0.1280072 0 0 Z " fill="#67D47C" transform="translate(206.683837890625,226.886474609375)"/>
<path d="M0 0 C2.31 0 4.62 0 7 0 C6.67 3.96 6.34 7.92 6 12 C5.67 11.34 5.34 10.68 5 10 C-2.59 10 -10.18 10 -18 10 C-18 8.02 -18 6.04 -18 4 C-10.74 4 -3.48 4 4 4 C4 3.34 4 2.68 4 2 C2.68 2 1.36 2 0 2 C0 1.34 0 0.68 0 0 Z " fill="#5DD76D" transform="translate(226,228)"/>
<path d="M0 0 C0.33 0 0.66 0 1 0 C1 16.17 1 32.34 1 49 C-2.83292714 45.16707286 -2.16000281 40.38721775 -2.16796875 35.234375 C-2.17129715 34.48214661 -2.17462555 33.72991821 -2.17805481 32.95489502 C-2.18310918 31.36463022 -2.1854636 29.77435485 -2.18530273 28.18408203 C-2.18747989 25.77227891 -2.20562526 23.36094046 -2.22460938 20.94921875 C-2.22754562 19.39843905 -2.22952887 17.8476572 -2.23046875 16.296875 C-2.23765427 15.58513123 -2.24483978 14.87338745 -2.25224304 14.14007568 C-2.22984161 9.13638032 -1.36364723 4.81684654 0 0 Z " fill="#00498B" transform="translate(93,119)"/>
<path d="M0 0 C1.65 0 3.3 0 5 0 C5 0.66 5 1.32 5 2 C21.5 2 38 2 55 2 C55 2.66 55 3.32 55 4 C36.85 4 18.7 4 0 4 C0 4.66 0 5.32 0 6 C-0.66 6 -1.32 6 -2 6 C-1.34 4.02 -0.68 2.04 0 0 Z " fill="#EB7168" transform="translate(235,198)"/>
<path d="M0 0 C1.65 0 3.3 0 5 0 C5.33 0.66 5.66 1.32 6 2 C17.22 2.33 28.44 2.66 40 3 C39.67 3.99 39.34 4.98 39 6 C27.12 6 15.24 6 3 6 C2.01 4.02 1.02 2.04 0 0 Z " fill="#B4C0CD" transform="translate(122,250)"/>
<path d="M0 0 C0.66 0.33 1.32 0.66 2 1 C4.47832659 1.15626576 6.93311331 1.25813198 9.4140625 1.31640625 C10.14370209 1.33718735 10.87334167 1.35796844 11.62509155 1.37937927 C13.95829763 1.44481917 16.29161721 1.50373368 18.625 1.5625 C20.20574095 1.60569053 21.78647039 1.64930499 23.3671875 1.69335938 C27.24467504 1.80049481 31.12227685 1.90177782 35 2 C34.67 2.99 34.34 3.98 34 5 C33.34 4.67 32.68 4.34 32 4 C29.89471067 3.91456105 27.78668843 3.89285275 25.6796875 3.90234375 C23.79443359 3.90717773 23.79443359 3.90717773 21.87109375 3.91210938 C20.55238281 3.92048828 19.23367188 3.92886719 17.875 3.9375 C16.53515789 3.94251511 15.195314 3.94707799 13.85546875 3.95117188 C10.57029343 3.96298905 7.28514119 3.98092499 4 4 C4 10.6 4 17.2 4 24 C3.34 24 2.68 24 2 24 C2 20.04 2 16.08 2 12 C0.35 12 -1.3 12 -3 12 C-3 15.96 -3 19.92 -3 24 C-3.66 23.67 -4.32 23.34 -5 23 C-4.67 16.73 -4.34 10.46 -4 4 C-3.67 5.32 -3.34 6.64 -3 8 C-2.01 8 -1.02 8 0 8 C0 5.36 0 2.72 0 0 Z " fill="#374935" transform="translate(238,224)"/>
<path d="M0 0 C0.66 0 1.32 0 2 0 C2.66 2.64 3.32 5.28 4 8 C5.32 8 6.64 8 8 8 C8 7.34 8 6.68 8 6 C13.28 6 18.56 6 24 6 C24 7.32 24 8.64 24 10 C18.72 10 13.44 10 8 10 C8 10.66 8 11.32 8 12 C7.34 12 6.68 12 6 12 C6 11.34 6 10.68 6 10 C4.824375 9.8453125 4.824375 9.8453125 3.625 9.6875 C1 9 1 9 -1 6 C-1.1875 3.375 -1.1875 3.375 -1 1 C-0.67 0.67 -0.34 0.34 0 0 Z " fill="#BED3D6" transform="translate(248,160)"/>
<path d="M0 0 C0.66 0 1.32 0 2 0 C3 1 4 2 5 3 C5.99 3.33 6.98 3.66 8 4 C8 4.66 8 5.32 8 6 C16.91 6 25.82 6 35 6 C35.33 5.01 35.66 4.02 36 3 C37.98 2.67 39.96 2.34 42 2 C42 2.66 42 3.32 42 4 C37.64269536 7.554545 34.60158555 8.51017963 29.02734375 8.53125 C27.71572266 8.53640625 26.40410156 8.5415625 25.05273438 8.546875 C24.37686279 8.53849609 23.70099121 8.53011719 23.00463867 8.52148438 C20.9387522 8.50001301 18.87632791 8.52134425 16.81054688 8.546875 C14.84504883 8.53914062 14.84504883 8.53914062 12.83984375 8.53125 C11.64738037 8.52673828 10.45491699 8.52222656 9.22631836 8.51757812 C5.39517547 7.90297177 3.72897858 6.70858263 1 4 C0.1875 1.75 0.1875 1.75 0 0 Z " fill="#C0CBC8" transform="translate(246,166)"/>
<path d="M0 0 C5.61 0 11.22 0 17 0 C17 1.65 17 3.3 17 5 C15.24440058 6.75559942 12.96417558 6.13221919 10.62890625 6.13671875 C9.92636719 6.13285156 9.22382813 6.12898437 8.5 6.125 C7.79746094 6.12886719 7.09492188 6.13273438 6.37109375 6.13671875 C1.12661378 6.12661378 1.12661378 6.12661378 0 5 C0 3.35 0 1.7 0 0 Z " fill="#838E96" transform="translate(259,144)"/>
<path d="M0 0 C1.39456452 0.00667256 2.78911118 0.01863093 4.18359375 0.03515625 C4.89451172 0.03966797 5.60542969 0.04417969 6.33789062 0.04882812 C8.09899388 0.06064761 9.86005411 0.07858362 11.62109375 0.09765625 C12.00328142 1.75380282 12.33504477 3.42222649 12.62109375 5.09765625 C11.62109375 6.09765625 11.62109375 6.09765625 8.0234375 6.1953125 C6.53512508 6.18863845 5.04682943 6.17667808 3.55859375 6.16015625 C2.79998047 6.15564453 2.04136719 6.15113281 1.25976562 6.14648438 C-0.61982496 6.13466305 -2.49937524 6.11672703 -4.37890625 6.09765625 C-4.42162725 4.4315372 -4.41954457 2.7638274 -4.37890625 1.09765625 C-3.37890625 0.09765625 -3.37890625 0.09765625 0 0 Z " fill="#7F8990" transform="translate(263.37890625,153.90234375)"/>
<path d="M0 0 C9.24 0 18.48 0 28 0 C28 0.33 28 0.66 28 1 C26.02 1 24.04 1 22 1 C22 1.66 22 2.32 22 3 C15.4 3 8.8 3 2 3 C2 8.28 2 13.56 2 19 C1.67 19 1.34 19 1 19 C0.67 12.73 0.34 6.46 0 0 Z " fill="#64CA73" transform="translate(204,227)"/>
<path d="M0 0 C0.495 0.99 0.495 0.99 1 2 C-0.04267883 3.48445129 -0.04267883 3.48445129 -2 5 C-4.52721667 5.25131865 -6.79592329 5.32131934 -9.31713867 5.2487793 C-10.05884811 5.23946381 -10.80055756 5.23014832 -11.56474304 5.22055054 C-14.01628263 5.18617591 -16.46683719 5.13028431 -18.91796875 5.07421875 C-20.6175985 5.04618637 -22.31725088 5.01949588 -24.016922 4.99409485 C-28.49049953 4.92362655 -32.9635371 4.83491056 -37.43670654 4.74243164 C-42.00123827 4.65128077 -46.56604481 4.57733412 -51.13085938 4.50195312 C-60.08759327 4.35150287 -69.04385102 4.1817798 -78 4 C-78 3.67 -78 3.34 -78 3 C-76.66695328 2.98786972 -76.66695328 2.98786972 -75.30697632 2.97549438 C-66.92051975 2.89746432 -58.53422188 2.81014822 -50.1479702 2.71247292 C-45.83679785 2.662586 -41.5256491 2.61625542 -37.21435547 2.578125 C-33.05156837 2.54117595 -28.88898243 2.49479017 -24.72636795 2.44193649 C-23.14044356 2.42344357 -21.55447613 2.40831688 -19.96848679 2.39665604 C-17.74229201 2.37970583 -15.5165528 2.35065075 -13.29052734 2.31884766 C-12.02477875 2.30552399 -10.75903015 2.29220032 -9.45492554 2.2784729 C-5.99725587 1.99977882 -3.22579209 1.2425643 0 0 Z " fill="#014477" transform="translate(182,166)"/>
<path d="M0 0 C0.66 0 1.32 0 2 0 C2 13.2 2 26.4 2 40 C0 38 0 38 -0.22705078 35.38623047 C-0.21657715 34.30744629 -0.20610352 33.22866211 -0.1953125 32.1171875 C-0.18886719 30.95058594 -0.18242187 29.78398437 -0.17578125 28.58203125 C-0.15902344 27.35871094 -0.14226562 26.13539063 -0.125 24.875 C-0.11597656 23.64394531 -0.10695312 22.41289062 -0.09765625 21.14453125 C-0.07402548 18.09616185 -0.04108054 15.04817618 0 12 C-0.66 12 -1.32 12 -2 12 C-2.28571429 3.42857143 -2.28571429 3.42857143 0 0 Z " fill="#EC7268" transform="translate(240,132)"/>
<path d="M0 0 C3.63 0 7.26 0 11 0 C11 0.33 11 0.66 11 1 C7.7 1 4.4 1 1 1 C1 1.99 1 2.98 1 4 C1.66 4 2.32 4 3 4 C4.76462683 7.08809695 5 8.23312136 5 12 C4.01 12 3.02 12 2 12 C2 18.93 2 25.86 2 33 C1.01 33.495 1.01 33.495 0 34 C0 22.78 0 11.56 0 0 Z " fill="#E97774" transform="translate(290,130)"/>
<path d="M0 0 C0.66 0 1.32 0 2 0 C2.02505615 1.06959961 2.0501123 2.13919922 2.07592773 3.24121094 C2.17019528 7.21463727 2.27036858 11.18789668 2.37231445 15.16113281 C2.41559016 16.87984305 2.45727041 18.59859424 2.49731445 20.31738281 C2.55519565 22.789839 2.61883836 25.26209047 2.68359375 27.734375 C2.70866249 28.88459137 2.70866249 28.88459137 2.73423767 30.05804443 C2.83012865 33.52173984 3.07915862 36.66366251 4 40 C3.01 40 2.02 40 1 40 C-0.573057 36.85388601 -0.26248091 33.45949319 -0.3515625 30 C-0.37471527 29.20851562 -0.39786804 28.41703125 -0.42172241 27.6015625 C-0.46936415 25.92714837 -0.51459797 24.25266427 -0.55761719 22.578125 C-0.62473477 20.01014783 -0.70248793 17.44264334 -0.78125 14.875 C-0.82616369 13.25001764 -0.87045548 11.62501795 -0.9140625 10 C-0.93796051 9.22914063 -0.96185852 8.45828125 -0.98648071 7.6640625 C-1.11484508 2.22969015 -1.11484508 2.22969015 0 0 Z " fill="#FA6671" transform="translate(242,132)"/>
<path d="M0 0 C0.66 0 1.32 0 2 0 C2 6.6 2 13.2 2 20 C0.68 20 -0.64 20 -2 20 C-2 22.64 -2 25.28 -2 28 C-2.66 28 -3.32 28 -4 28 C-4 23.38 -4 18.76 -4 14 C-2.68 13.34 -1.36 12.68 0 12 C0 8.04 0 4.08 0 0 Z " fill="#523940" transform="translate(278,228)"/>
<path d="M0 0 C0.99 0 1.98 0 3 0 C3.59615112 0.7266687 3.59615112 0.7266687 4.2043457 1.46801758 C7.01970178 3.86996991 10.19224107 3.48067201 13.73046875 3.51171875 C14.48088943 3.52966995 15.23131012 3.54762115 16.00447083 3.56611633 C18.3987569 3.62025187 20.79284331 3.65412416 23.1875 3.6875 C24.81187677 3.72067036 26.43622717 3.75515976 28.06054688 3.79101562 C32.04022056 3.8759797 36.0198347 3.94277465 40 4 C40 4.33 40 4.66 40 5 C29.77 5 19.54 5 9 5 C8.67 5.99 8.34 6.98 8 8 C7.67 7.34 7.34 6.68 7 6 C-1.91 5.67 -10.82 5.34 -20 5 C-20 4.67 -20 4.34 -20 4 C-13.73 4 -7.46 4 -1 4 C-0.67 2.68 -0.34 1.36 0 0 Z " fill="#0D4F8A" transform="translate(148,176)"/>
<path d="M0 0 C7.59 0 15.18 0 23 0 C23 1.98 23 3.96 23 6 C22.67 4.68 22.34 3.36 22 2 C20.77410156 2.49113281 20.77410156 2.49113281 19.5234375 2.9921875 C15.40736876 4.16951093 11.86955666 4.22478162 7.625 4.125 C6.52091797 4.11146484 6.52091797 4.11146484 5.39453125 4.09765625 C3.5962112 4.07430144 1.79806089 4.03843836 0 4 C0 2.68 0 1.36 0 0 Z " fill="#5CD86A" transform="translate(208,240)"/>
<path d="M0 0 C2.12038635 2.61514317 4.13091744 5.19637616 6 8 C1.47954554 8.16749457 -3.04108118 8.32806608 -7.56201172 8.48217773 C-9.10049078 8.53560391 -10.63890494 8.59093379 -12.17724609 8.64819336 C-14.38625086 8.73008748 -16.59539724 8.80517099 -18.8046875 8.87890625 C-19.49432587 8.90594131 -20.18396423 8.93297638 -20.89450073 8.96083069 C-25.77225659 9.11387171 -25.77225659 9.11387171 -28 8 C-27.67 7.01 -27.34 6.02 -27 5 C-13.635 5.495 -13.635 5.495 0 6 C0 4.02 0 2.04 0 0 Z " fill="#1E436E" transform="translate(151,198)"/>
<path d="M0 0 C10.23 0 20.46 0 31 0 C31 0.33 31 0.66 31 1 C21.43 1.33 11.86 1.66 2 2 C1.67 8.6 1.34 15.2 1 22 C0.34 21.67 -0.32 21.34 -1 21 C-1.33 14.73 -1.66 8.46 -2 2 C-1.34 2 -0.68 2 0 2 C0 1.34 0 0.68 0 0 Z " fill="#215730" transform="translate(202,226)"/>
<path d="M0 0 C1 2 1 2 0 6 C-5.28 6 -10.56 6 -16 6 C-16 4.68 -16 3.36 -16 2 C-14.64455078 1.90912109 -14.64455078 1.90912109 -13.26171875 1.81640625 C-11.49248047 1.69072266 -11.49248047 1.69072266 -9.6875 1.5625 C-7.92986328 1.44068359 -7.92986328 1.44068359 -6.13671875 1.31640625 C-2.97409042 1.1132629 -2.97409042 1.1132629 0 0 Z " fill="#F7DF6D" transform="translate(270,228)"/>
<path d="M0 0 C1.16781006 0.00523682 2.33562012 0.01047363 3.53881836 0.01586914 C4.79887695 0.0190918 6.05893555 0.02231445 7.35717773 0.02563477 C8.6976732 0.03399136 10.03816799 0.04245632 11.37866211 0.05102539 C12.72306153 0.05603879 14.06746271 0.06060197 15.41186523 0.06469727 C18.71334151 0.07653051 22.01473014 0.09301568 25.31616211 0.11352539 C25.31616211 0.44352539 25.31616211 0.77352539 25.31616211 1.11352539 C16.73616211 1.11352539 8.15616211 1.11352539 -0.68383789 1.11352539 C-1.01383789 7.05352539 -1.34383789 12.99352539 -1.68383789 19.11352539 C-2.34383789 19.11352539 -3.00383789 19.11352539 -3.68383789 19.11352539 C-3.71067776 16.13429946 -3.73059826 13.15531244 -3.74633789 10.17602539 C-3.7547168 9.32588867 -3.7630957 8.47575195 -3.77172852 7.59985352 C-3.77495117 6.7909668 -3.77817383 5.98208008 -3.78149414 5.14868164 C-3.78673096 4.39981689 -3.79196777 3.65095215 -3.79736328 2.87939453 C-3.60801073 -0.06595385 -2.95969283 0.12519396 0 0 Z " fill="#D7D190" transform="translate(244.683837890625,226.886474609375)"/>
<path d="M0 0 C0.99 0 1.98 0 3 0 C3.33 1.32 3.66 2.64 4 4 C9.94 4 15.88 4 22 4 C22 4.66 22 5.32 22 6 C16.72 6 11.44 6 6 6 C6 6.66 6 7.32 6 8 C4.68 8 3.36 8 2 8 C0.23537317 4.91190305 0 3.76687864 0 0 Z " fill="#D1C8E7" transform="translate(250,160)"/>
<path d="M0 0 C1.65 0 3.3 0 5 0 C5 6.6 5 13.2 5 20 C3.02 20 1.04 20 -1 20 C-1 19.34 -1 18.68 -1 18 C0.32 18 1.64 18 3 18 C2.67 12.72 2.34 7.44 2 2 C1.34 2 0.68 2 0 2 C0 1.34 0 0.68 0 0 Z " fill="#A71033" transform="translate(305,228)"/>
<path d="M0 0 C7.92 0 15.84 0 24 0 C24 0.33 24 0.66 24 1 C21.03 1 18.06 1 15 1 C15 1.66 15 2.32 15 3 C14.34 3 13.68 3 13 3 C13 3.66 13 4.32 13 5 C12.34 5 11.68 5 11 5 C11 4.34 11 3.68 11 3 C9.741875 3.061875 8.48375 3.12375 7.1875 3.1875 C5.04296875 3.29296875 5.04296875 3.29296875 3 3 C2.01 2.01 1.02 1.02 0 0 Z " fill="#383E37" transform="translate(245,249)"/>
<path d="M0 0 C0.66 0.33 1.32 0.66 2 1 C3.5195764 1.15123831 5.04472502 1.24881693 6.5703125 1.31640625 C7.91416016 1.37924805 7.91416016 1.37924805 9.28515625 1.44335938 C10.22230469 1.48267578 11.15945312 1.52199219 12.125 1.5625 C13.54232422 1.62727539 13.54232422 1.62727539 14.98828125 1.69335938 C17.32537092 1.79959072 19.6625683 1.90163176 22 2 C21.67 2.66 21.34 3.32 21 4 C13.74 4 6.48 4 -1 4 C-0.67 2.68 -0.34 1.36 0 0 Z " fill="#084388" transform="translate(125,200)"/>
<path d="M0 0 C0.99 0 1.98 0 3 0 C3 1.98 3 3.96 3 6 C4.32 6 5.64 6 7 6 C7 7.65 7 9.3 7 11 C5.35 11.33 3.7 11.66 2 12 C2 10.02 2 8.04 2 6 C1.34 6 0.68 6 0 6 C0 4.02 0 2.04 0 0 Z " fill="#FADE7B" transform="translate(247,234)"/>
<path d="M0 0 C1.32 0 2.64 0 4 0 C4 0.66 4 1.32 4 2 C6.64 2 9.28 2 12 2 C12 2.66 12 3.32 12 4 C9.36 4 6.72 4 4 4 C4 5.32 4 6.64 4 8 C3.01 8 2.02 8 1 8 C-0.35439668 5.29120665 -0.06501451 2.99066732 0 0 Z " fill="#2E4B44" transform="translate(276,248)"/>
<path d="M0 0 C0.66 0 1.32 0 2 0 C3 1 4 2 5 3 C5.99 3.33 6.98 3.66 8 4 C8 4.66 8 5.32 8 6 C13.94 6 19.88 6 26 6 C26 6.33 26 6.66 26 7 C22.77294032 7.28525503 19.54406186 7.52188975 16.3125 7.75 C15.40048828 7.83121094 14.48847656 7.91242188 13.54882812 7.99609375 C6.74113756 8.44168804 6.74113756 8.44168804 2.90625 6.15625 C1.0078419 4.00887035 0.30210056 2.8196052 0 0 Z " fill="#D3CFD5" transform="translate(246,166)"/>
<path d="M0 0 C0.66 0 1.32 0 2 0 C2.66 2.64 3.32 5.28 4 8 C5.32 8 6.64 8 8 8 C8 9.32 8 10.64 8 12 C7.34 12 6.68 12 6 12 C6 11.34 6 10.68 6 10 C4.824375 9.8453125 4.824375 9.8453125 3.625 9.6875 C1 9 1 9 -1 6 C-1.1875 3.375 -1.1875 3.375 -1 1 C-0.67 0.67 -0.34 0.34 0 0 Z " fill="#B7D6DD" transform="translate(248,160)"/>
<path d="M0 0 C2.72720359 2.11358278 4.75312279 3.7413671 5.4375 7.23046875 C5.59617063 13.30953708 5.59617063 13.30953708 3.46875 15.7734375 C2.74171875 16.38058594 2.74171875 16.38058594 2 17 C2.14107747 15.54119891 2.28802415 14.08296449 2.4375 12.625 C2.51871094 11.81289062 2.59992188 11.00078125 2.68359375 10.1640625 C3 8 3 8 4 6 C1.525 5.01 1.525 5.01 -1 4 C-0.67 2.68 -0.34 1.36 0 0 Z " fill="#D3EAF2" transform="translate(122,184)"/>
<path d="M0 0 C1.953125 0.13020833 3.90625 0.26041667 5.859375 0.390625 C6.519375 1.710625 7.179375 3.030625 7.859375 4.390625 C3.239375 4.390625 -1.380625 4.390625 -6.140625 4.390625 C-2.140625 0.390625 -2.140625 0.390625 0 0 Z " fill="#B8C4D2" transform="translate(266.140625,139.609375)"/>
<path d="M0 0 C-0.50712033 3.71888239 -1.11608215 6.73454239 -3 10 C-3.66 10 -4.32 10 -5 10 C-5 9.01 -5 8.02 -5 7 C-6.32 6.67 -7.64 6.34 -9 6 C-8.34 6 -7.68 6 -7 6 C-6.731875 5.38125 -6.46375 4.7625 -6.1875 4.125 C-4.67436553 1.41728569 -3.21502868 0 0 0 Z " fill="#094F89" transform="translate(187,160)"/>
<path d="M0 0 C1.25541557 3.76624671 0.37061958 5.37188934 -1 9 C-3.66666667 6.33333333 -6.33333333 3.66666667 -9 1 C-6.04335481 -0.4783226 -3.25770263 -0.06032783 0 0 Z " fill="#0D5385" transform="translate(185,116)"/>
<path d="M0 0 C0.33 0 0.66 0 1 0 C1.66 6.6 2.32 13.2 3 20 C2.01 19.67 1.02 19.34 0 19 C0 12.73 0 6.46 0 0 Z " fill="#6DC57C" transform="translate(203,228)"/>
<path d="M0 0 C10.23 0 20.46 0 31 0 C30.67 0.99 30.34 1.98 30 3 C29.34 2.67 28.68 2.34 28 2 C25.89625004 1.84558791 23.78804881 1.75007361 21.6796875 1.68359375 C20.42285156 1.64169922 19.16601562 1.59980469 17.87109375 1.55664062 C16.55238281 1.51732422 15.23367188 1.47800781 13.875 1.4375 C12.53514249 1.39430488 11.19529844 1.35069027 9.85546875 1.30664062 C6.57042185 1.20029019 3.28529719 1.09826192 0 1 C0 0.67 0 0.34 0 0 Z " fill="#47491E" transform="translate(242,226)"/>
<path d="M0 0 C0.33 0 0.66 0 1 0 C1 3.96 1 7.92 1 12 C0.67 12 0.34 12 0 12 C0 10.02 0 8.04 0 6 C-2.31 6 -4.62 6 -7 6 C-6.34 4.68 -5.68 3.36 -5 2 C-3.35 2 -1.7 2 0 2 C0 1.34 0 0.68 0 0 Z " fill="#F6EDF0" transform="translate(231,132)"/>
<path d="M0 0 C0.33 0.66 0.66 1.32 1 2 C3.02463255 2.65213292 3.02463255 2.65213292 5 3 C5 4.65 5 6.3 5 8 C3.35 8 1.7 8 0 8 C-1.125 5.6875 -1.125 5.6875 -2 3 C-1.34 2.01 -0.68 1.02 0 0 Z " fill="#E0EAE4" transform="translate(153,186)"/>
<path d="M0 0 C3 1 3 1 4 3 C4.04022391 5.3329866 4.04320247 7.66706666 4 10 C3.01 10 2.02 10 1 10 C0.67 6.7 0.34 3.4 0 0 Z " fill="#2B4C42" transform="translate(310,234)"/>
<path d="M0 0 C12.87 0.495 12.87 0.495 26 1 C26 1.33 26 1.66 26 2 C25.01604248 2.03758423 25.01604248 2.03758423 24.01220703 2.07592773 C21.04959817 2.1917326 18.08731969 2.31452886 15.125 2.4375 C14.09246094 2.47681641 13.05992187 2.51613281 11.99609375 2.55664062 C11.00996094 2.59853516 10.02382812 2.64042969 9.0078125 2.68359375 C8.09660645 2.72025146 7.18540039 2.75690918 6.24658203 2.79467773 C3.96516519 2.86577065 3.96516519 2.86577065 2 4 C1.34 3.67 0.68 3.34 0 3 C0 2.01 0 1.02 0 0 Z " fill="#163A63" transform="translate(123,203)"/>
<path d="M0 0 C1.32 0 2.64 0 4 0 C4 2.64 4 5.28 4 8 C2.68 8 1.36 8 0 8 C0 5.36 0 2.72 0 0 Z " fill="#E97266" transform="translate(296,194)"/>
<path d="M0 0 C2.31 0 4.62 0 7 0 C7 1.98 7 3.96 7 6 C5.68 6 4.36 6 3 6 C2.67 4.68 2.34 3.36 2 2 C1.34 2 0.68 2 0 2 C0 1.34 0 0.68 0 0 Z " fill="#FA676E" transform="translate(291,132)"/>
<path d="M0 0 C1.65 0 3.3 0 5 0 C5.66 1.65 6.32 3.3 7 5 C6.01 5.99 5.02 6.98 4 8 C2.68 5.36 1.36 2.72 0 0 Z " fill="#BECBD4" transform="translate(113,234)"/>
<path d="M0 0 C4.95 0 9.9 0 15 0 C15.33 1.65 15.66 3.3 16 5 C14.68 5 13.36 5 12 5 C12 4.01 12 3.02 12 2 C8.04 1.67 4.08 1.34 0 1 C0 0.67 0 0.34 0 0 Z " fill="#89959E" transform="translate(260,154)"/>
<path d="M0 0 C1.32 0 2.64 0 4 0 C4 2.64 4 5.28 4 8 C3.01 8 2.02 8 1 8 C0.67 5.36 0.34 2.72 0 0 Z " fill="#434149" transform="translate(234,224)"/>
<path d="M0 0 C1.98 0 3.96 0 6 0 C6 1.32 6 2.64 6 4 C5.34 4 4.68 4 4 4 C4 4.66 4 5.32 4 6 C3.34 6 2.68 6 2 6 C2 5.34 2 4.68 2 4 C1.34 4 0.68 4 0 4 C0 2.68 0 1.36 0 0 Z " fill="#F0ECFD" transform="translate(114,186)"/>
<path d="M0 0 C0.33 0 0.66 0 1 0 C1.1953125 6.0546875 1.1953125 6.0546875 1 8 C-1 10 -1 10 -4.125 10.125 C-5.548125 10.063125 -5.548125 10.063125 -7 10 C-5.71034824 8.62437146 -4.37310707 7.29233607 -3 6 C-2.34 6 -1.68 6 -1 6 C-0.67 4.02 -0.34 2.04 0 0 Z " fill="#D87D83" transform="translate(289,164)"/>
<path d="M0 0 C0 0.66 0 1.32 0 2 C-2.30276574 4.21747812 -3.52480092 4.96760006 -6.75 5.1875 C-7.86375 5.0946875 -7.86375 5.0946875 -9 5 C-8.34 4.67 -7.68 4.34 -7 4 C-6.67 3.01 -6.34 2.02 -6 1 C-4 0 -4 0 0 0 Z " fill="#D6C5CF" transform="translate(288,168)"/>
<path d="M0 0 C0.66 0 1.32 0 2 0 C3.25227484 1.47704212 4.50166522 2.95827399 5.68359375 4.4921875 C7.11764091 6.26762944 7.11764091 6.26762944 10 8 C5.17965738 7.58682778 3.09007389 5.61980085 0 2 C0 1.34 0 0.68 0 0 Z " fill="#DDB1B5" transform="translate(246,166)"/>
<path d="M0 0 C0.99 0.33 1.98 0.66 3 1 C2.34 1 1.68 1 1 1 C1.33 2.32 1.66 3.64 2 5 C1.360625 5.28875 0.72125 5.5775 0.0625 5.875 C-2.15206079 6.82823451 -2.15206079 6.82823451 -3 9 C-3.66 8.67 -4.32 8.34 -5 8 C-3.35 5.36 -1.7 2.72 0 0 Z " fill="#5F6D76" transform="translate(173,234)"/>
<path d="M0 0 C0.66 0 1.32 0 2 0 C1.49396008 2.16874252 1.00016187 3.99967627 0 6 C-2.97 5.505 -2.97 5.505 -6 5 C-5.67 4.34 -5.34 3.68 -5 3 C-3.35 3 -1.7 3 0 3 C0 2.01 0 1.02 0 0 Z " fill="#195D90" transform="translate(193,173)"/>
<path d="M0 0 C4.75 0.875 4.75 0.875 7 2 C7.625 5.0625 7.625 5.0625 8 8 C7.34 8 6.68 8 6 8 C4.6273318 6.02678947 3.29572383 4.02456848 2 2 C1.34 1.34 0.68 0.68 0 0 Z " fill="#CAECF9" transform="translate(189,104)"/>
<path d="M0 0 C0 0.66 0 1.32 0 2 C0.66 2 1.32 2 2 2 C1.67 2.99 1.34 3.98 1 5 C-0.9375 4.6875 -0.9375 4.6875 -3 4 C-3.33 3.01 -3.66 2.02 -4 1 C-2 0 -2 0 0 0 Z " fill="#D8E8F3" transform="translate(158,200)"/>
<path d="M0 0 C1.65 0 3.3 0 5 0 C4.67 1.32 4.34 2.64 4 4 C2.35 4 0.7 4 -1 4 C-0.67 2.68 -0.34 1.36 0 0 Z " fill="#F3F0E4" transform="translate(119,196)"/>
<path d="M0 0 C1.98 0.66 3.96 1.32 6 2 C5.67 3.65 5.34 5.3 5 7 C3.29115995 5.37660195 1.62553283 3.70680947 0 2 C0 1.34 0 0.68 0 0 Z " fill="#1A4D74" transform="translate(121,181)"/>
<path d="M0 0 C2.64 0 5.28 0 8 0 C8 0.66 8 1.32 8 2 C5.36 2.33 2.72 2.66 0 3 C0 2.01 0 1.02 0 0 Z " fill="#115893" transform="translate(88,178)"/>
<path d="M0 0 C0.99 0 1.98 0 3 0 C3 1.98 3 3.96 3 6 C2.01 6 1.02 6 0 6 C0 4.02 0 2.04 0 0 Z " fill="#B8082B" transform="translate(285,234)"/>
<path d="M0 0 C0.66 0 1.32 0 2 0 C2 2.64 2 5.28 2 8 C1.34 8 0.68 8 0 8 C-0.38063221 5.6739143 -0.71269945 3.33944736 -1 1 C-0.67 0.67 -0.34 0.34 0 0 Z " fill="#245047" transform="translate(316,224)"/>
<path d="M0 0 C2.64 0 5.28 0 8 0 C8 0.99 8 1.98 8 3 C5.36 2.34 2.72 1.68 0 1 C0 0.67 0 0.34 0 0 Z " fill="#1658A1" transform="translate(182,178)"/>
<path d="M0 0 C1.65 1.65 3.3 3.3 5 5 C4.67 5.99 4.34 6.98 4 8 C2.35 6.35 0.7 4.7 -1 3 C-0.67 2.01 -0.34 1.02 0 0 Z " fill="#1E5998" transform="translate(190,105)"/>
<path d="M0 0 C0.66 0 1.32 0 2 0 C2.66 1.65 3.32 3.3 4 5 C1.69 5 -0.62 5 -3 5 C-3 4.34 -3 3.68 -3 3 C-2.34 3 -1.68 3 -1 3 C-0.67 2.01 -0.34 1.02 0 0 Z " fill="#034F91" transform="translate(188,105)"/>
</svg>
